<svg class="svg-icon" style="width: 1em;height: 1em;vertical-align: middle;fill: currentColor;overflow: hidden;" viewBox="0 0 1024 1024" version="1.1" xmlns="http://www.w3.org/2000/svg"><path d="M512 22.674286a489.325714 489.325714 0 1 1 0 978.651428C242.102857 1001.325714 22.674286 782.628571 22.674286 512S241.371429 22.674286 512 22.674286z m0 86.308571C289.645714 108.982857 108.982857 289.645714 108.982857 512c0 107.52 42.422857 205.531429 111.177143 277.942857l141.165714-168.228571c24.868571 16.822857 51.931429 29.988571 81.188572 38.034285l-155.794286 185.782858c65.828571 45.348571 144.822857 69.485714 225.28 69.485714 78.994286 0 152.868571-22.674286 215.04-62.171429l-159.451429-190.171428c29.988571-6.582857 58.514286-17.554286 84.114286-33.645715l142.628572 170.422858A400.457143 400.457143 0 0 0 915.017143 512c0-222.354286-180.662857-403.017143-403.017143-403.017143z m0 86.308572c94.354286 0 177.005714 63.634286 201.142857 154.331428 24.137143 91.428571-16.091429 187.245714-98.011428 234.057143l-0.731429 0.731429-1.462857 0.731428c-2.194286 0.731429-4.388571 2.194286-6.582857 2.925714l7.314285-4.388571c-30.72 18.285714-65.828571 27.794286-101.668571 27.794286-27.062857 0-53.394286-5.12-78.262857-15.36-2.925714-1.462857-5.12-2.194286-8.045714-3.657143l8.045714 3.657143a263.314286 263.314286 0 0 1-28.525714-14.628572A207.872 207.872 0 0 1 512 195.291429z m0 86.308571c-67.291429 0-121.417143 54.125714-121.417143 121.417143 0 67.291429 54.125714 121.417143 121.417143 121.417143 67.291429 0 121.417143-54.125714 121.417143-121.417143 0-66.56-54.125714-121.417143-121.417143-121.417143z m0 0"  /></svg>