<svg width="1420" height="260" viewBox="0 0 1420 260" fill="none" xmlns="http://www.w3.org/2000/svg">
<g clip-path="url(#clip0_62_98)">
<path d="M405.333 155C405.333 160.891 410.109 165.667 416 165.667C421.891 165.667 426.667 160.891 426.667 155C426.667 149.109 421.891 144.333 416 144.333C410.109 144.333 405.333 149.109 405.333 155ZM159 157H416V153H159V157Z" fill="#7FCDAC"/>
<rect x="18" y="114" width="140" height="83" rx="9" fill="#B3FEDE" stroke="#7FCDAC" stroke-width="2"/>
<path d="M61.908 148.542H68.432V149.55H61.908V148.542ZM68.068 148.542H68.25L68.446 148.486L69.118 148.71C68.236 154.87 65.45 158.44 61.796 160.148C61.642 159.868 61.348 159.448 61.124 159.238C64.554 157.824 67.256 154.282 68.068 148.766V148.542ZM63.42 149.76C64.302 154.422 65.856 157.096 69.608 159.28C69.328 159.476 69.006 159.854 68.852 160.162C64.974 157.74 63.406 154.884 62.468 149.956L63.42 149.76ZM56.7 150.222H62.006V151.202H56.7V150.222ZM59.038 147.24H60.074V160.106H59.038V147.24ZM58.996 150.824L59.78 151.048C59.262 153.344 58.184 156.144 57.022 157.6C56.91 157.306 56.63 156.914 56.434 156.662C57.498 155.332 58.548 152.896 58.996 150.824ZM59.99 152.616C60.41 152.938 61.95 154.338 62.286 154.674L61.712 155.626C61.264 155.024 59.99 153.666 59.5 153.176L59.99 152.616ZM76.818 150.516H82.04V151.398H76.818V150.516ZM74.634 158.902C75.922 158.678 77.952 158.272 79.912 157.88L79.982 158.804C78.218 159.21 76.342 159.616 74.984 159.924L74.634 158.902ZM76.216 147.87H77.238V158.986H76.216V147.87ZM76.818 147.87H82.53V154.086H76.818V153.162H81.508V148.794H76.818V147.87ZM79.52 153.484C80.122 156.102 81.396 158.286 83.482 159.21C83.244 159.42 82.936 159.812 82.782 160.078C80.598 158.972 79.296 156.606 78.652 153.652L79.52 153.484ZM82.306 154.408L83.132 155.01C82.348 155.738 81.354 156.522 80.57 157.04L79.912 156.508C80.668 155.962 81.718 155.08 82.306 154.408ZM71.134 147.856H74.718V148.808H72.128V160.134H71.134V147.856ZM74.41 147.856H74.606L74.76 147.814L75.474 148.248C75.026 149.41 74.438 150.852 73.92 151.958C75.054 153.12 75.32 154.114 75.32 154.982C75.32 155.752 75.138 156.326 74.718 156.62C74.508 156.76 74.242 156.844 73.948 156.872C73.626 156.914 73.234 156.914 72.884 156.886C72.87 156.634 72.786 156.214 72.618 155.934C72.982 155.976 73.29 155.976 73.542 155.962C73.724 155.948 73.892 155.906 74.032 155.822C74.27 155.668 74.354 155.304 74.34 154.87C74.34 154.1 74.046 153.176 72.954 152.084C73.514 150.81 74.088 149.116 74.41 148.15V147.856ZM87.78 158.846H95.186V159.658H87.78V158.846ZM90.454 150.082H91.476V151.636H90.454V150.082ZM85.134 151.174H96.964V153.806H95.928V152.014H86.142V153.806H85.134V151.174ZM87.724 152.882H94.906V155.696H87.724V154.884H93.87V153.68H87.724V152.882ZM87.766 156.662H95.802V160.106H94.766V157.488H87.766V156.662ZM87.164 152.882H88.172V160.134H87.164V152.882ZM86.282 148.318H90.804V149.186H86.282V148.318ZM91.742 148.318H97.398V149.186H91.742V148.318ZM86.548 147.184L87.542 147.436C87.024 148.668 86.198 149.886 85.386 150.684C85.19 150.53 84.77 150.236 84.518 150.11C85.358 149.382 86.114 148.276 86.548 147.184ZM92.064 147.184L93.058 147.422C92.554 148.64 91.672 149.774 90.79 150.502C90.58 150.348 90.146 150.096 89.88 149.97C90.804 149.298 91.616 148.262 92.064 147.184ZM87.066 148.976L87.976 148.738C88.298 149.228 88.662 149.914 88.802 150.348L87.85 150.628C87.724 150.194 87.388 149.494 87.066 148.976ZM93.002 148.99L93.926 148.71C94.36 149.2 94.864 149.886 95.074 150.348L94.122 150.656C93.926 150.208 93.45 149.494 93.002 148.99ZM104.65 151.454V153.26H109.858V151.454H104.65ZM104.65 148.808V150.586H109.858V148.808H104.65ZM103.698 147.898H110.866V154.17H103.698V147.898ZM103.516 155.808H111.062V156.774H103.516V155.808ZM102.438 158.706H111.524V159.658H102.438V158.706ZM98.63 148.192H102.998V149.186H98.63V148.192ZM98.784 152.238H102.802V153.232H98.784V152.238ZM98.49 157.6C99.624 157.292 101.304 156.746 102.928 156.2L103.11 157.208C101.584 157.726 99.988 158.258 98.742 158.678L98.49 157.6ZM100.38 148.584H101.388V157.264L100.38 157.46V148.584ZM106.792 148.332H107.716V153.722H107.786V159.14H106.722V153.722H106.792V148.332ZM113.456 148.192H124.488V149.228H113.456V148.192ZM112.728 154.142H125.286V155.192H112.728V154.142ZM114.436 150.194L115.374 149.9C115.948 150.922 116.522 152.252 116.718 153.078L115.71 153.414C115.514 152.588 114.968 151.23 114.436 150.194ZM122.556 149.844L123.676 150.152C123.144 151.286 122.486 152.63 121.94 153.47L121.044 153.176C121.562 152.294 122.22 150.852 122.556 149.844ZM118.426 148.598H119.504V160.12H118.426V148.598ZM129.01 158.482H136.892V159.504H129.01V158.482ZM128.534 154.156H137.452V160.092H136.346V155.164H129.598V160.12H128.534V154.156ZM131.348 147.198L132.496 147.604C131.656 149.228 130.48 151.16 129.542 152.392L128.632 152C129.556 150.754 130.704 148.696 131.348 147.198ZM134.708 149.466L135.534 148.85C136.962 149.984 138.614 151.636 139.342 152.798L138.446 153.498C137.746 152.336 136.15 150.642 134.708 149.466ZM126.882 151.538C129.542 151.468 133.854 151.286 137.844 151.104L137.788 152.112C133.854 152.322 129.626 152.504 126.952 152.616L126.882 151.538Z" fill="#057C49"/>
<path d="M210 102.804L210.536 103.649L210.549 103.641L210.561 103.632L210 102.804ZM272 60.8045L260.483 61.633L266.959 71.193L272 60.8045ZM158.279 136.844L210.536 103.649L209.464 101.96L157.207 135.156L158.279 136.844ZM210.561 103.632L265.11 66.68L263.988 65.0242L209.439 101.977L210.561 103.632Z" fill="url(#paint0_linear_62_98)"/>
<path d="M237.621 24.3914L297.743 9.51508L357.865 24.3914V53.6086L297.743 68.4849L237.621 53.6086V24.3914Z" fill="#C5E1FF" stroke="#96C9FF"/>
<path d="M270.373 34.906H274.825V35.9H270.373V34.906ZM272.151 35.354H273.187V42.298H272.151V35.354ZM270.135 42.438C271.311 42.116 273.117 41.57 274.909 41.038L275.035 41.934C273.411 42.508 271.703 43.082 270.415 43.516L270.135 42.438ZM275.063 33.87H283.141V34.822H275.063V33.87ZM278.465 34.276L279.697 34.458C279.375 35.27 278.983 36.152 278.675 36.74L277.723 36.53C278.003 35.9 278.297 34.948 278.465 34.276ZM278.395 38H279.445V40.968C279.445 42.802 278.815 44.846 274.853 46.092C274.741 45.868 274.419 45.49 274.195 45.266C278.017 44.23 278.395 42.438 278.395 40.954V38ZM279.375 43.74L280.047 43.082C281.111 43.74 282.511 44.72 283.197 45.364L282.497 46.12C281.825 45.448 280.467 44.44 279.375 43.74ZM275.581 36.278H282.217V42.844H281.153V37.23H276.603V42.872H275.581V36.278ZM286.669 37.426H294.775V38.42H286.669V37.426ZM286.669 40.744H294.775V41.738H286.669V40.744ZM286.669 44.076H294.775V45.098H286.669V44.076ZM285.941 34.108H295.447V46.05H294.355V35.144H286.991V46.05H285.941V34.108ZM301.523 44.846H308.929V45.658H301.523V44.846ZM304.197 36.082H305.219V37.636H304.197V36.082ZM298.877 37.174H310.707V39.806H309.671V38.014H299.885V39.806H298.877V37.174ZM301.467 38.882H308.649V41.696H301.467V40.884H307.613V39.68H301.467V38.882ZM301.509 42.662H309.545V46.106H308.509V43.488H301.509V42.662ZM300.907 38.882H301.915V46.134H300.907V38.882ZM300.025 34.318H304.547V35.186H300.025V34.318ZM305.485 34.318H311.141V35.186H305.485V34.318ZM300.291 33.184L301.285 33.436C300.767 34.668 299.941 35.886 299.129 36.684C298.933 36.53 298.513 36.236 298.261 36.11C299.101 35.382 299.857 34.276 300.291 33.184ZM305.807 33.184L306.801 33.422C306.297 34.64 305.415 35.774 304.533 36.502C304.323 36.348 303.889 36.096 303.623 35.97C304.547 35.298 305.359 34.262 305.807 33.184ZM300.809 34.976L301.719 34.738C302.041 35.228 302.405 35.914 302.545 36.348L301.593 36.628C301.467 36.194 301.131 35.494 300.809 34.976ZM306.745 34.99L307.669 34.71C308.103 35.2 308.607 35.886 308.817 36.348L307.865 36.656C307.669 36.208 307.193 35.494 306.745 34.99ZM318.393 37.454V39.26H323.601V37.454H318.393ZM318.393 34.808V36.586H323.601V34.808H318.393ZM317.441 33.898H324.609V40.17H317.441V33.898ZM317.259 41.808H324.805V42.774H317.259V41.808ZM316.181 44.706H325.267V45.658H316.181V44.706ZM312.373 34.192H316.741V35.186H312.373V34.192ZM312.527 38.238H316.545V39.232H312.527V38.238ZM312.233 43.6C313.367 43.292 315.047 42.746 316.671 42.2L316.853 43.208C315.327 43.726 313.731 44.258 312.485 44.678L312.233 43.6ZM314.123 34.584H315.131V43.264L314.123 43.46V34.584ZM320.535 34.332H321.459V39.722H321.529V45.14H320.465V39.722H320.535V34.332Z" fill="#007BFE"/>
<path d="M217.878 138.196L278 123.32L338.122 138.196V167.413L278 182.289L217.878 167.413V138.196Z" fill="url(#paint1_linear_62_98)" stroke="#7FCDAC"/>
<path d="M253.262 151.104H259.982V152.07H253.262V151.104ZM250.98 154.618H263.048V155.612H250.98V154.618ZM256.454 153.568H257.56V158.622C257.56 159.252 257.406 159.56 256.902 159.728C256.412 159.896 255.67 159.91 254.48 159.91C254.41 159.602 254.2 159.154 254.018 158.86C254.97 158.888 255.88 158.888 256.132 158.874C256.384 158.86 256.454 158.804 256.454 158.608V153.568ZM259.66 151.104H259.94L260.178 151.048L260.864 151.566C259.94 152.588 258.554 153.68 257.266 154.338C257.14 154.142 256.86 153.876 256.692 153.736C257.784 153.148 259.03 152.098 259.66 151.314V151.104ZM256.426 147.03H257.532V149.284H256.426V147.03ZM251.12 148.57H262.866V151.86H261.788V149.564H252.156V151.86H251.12V148.57ZM272.302 157.544L273.044 156.858C274.528 157.572 276.18 158.496 277.146 159.168L276.222 159.882C275.298 159.21 273.772 158.286 272.302 157.544ZM264.546 155.64H277.44V156.634H264.546V155.64ZM266.492 152.07H275.522V153.064H266.492V152.07ZM268.97 147.03H269.95V156.102H268.97V147.03ZM272.008 147.016H273.016V156.116H272.008V147.016ZM265.96 148.738H276.152V156.046H275.088V149.718H266.982V156.046H265.96V148.738ZM268.746 156.886L269.74 157.488C268.648 158.412 266.912 159.364 265.47 159.938C265.288 159.714 264.924 159.378 264.686 159.182C266.142 158.636 267.878 157.684 268.746 156.886ZM281.78 158.65H289.186V159.462H281.78V158.65ZM284.454 149.886H285.476V151.44H284.454V149.886ZM279.134 150.978H290.964V153.61H289.928V151.818H280.142V153.61H279.134V150.978ZM281.724 152.686H288.906V155.5H281.724V154.688H287.87V153.484H281.724V152.686ZM281.766 156.466H289.802V159.91H288.766V157.292H281.766V156.466ZM281.164 152.686H282.172V159.938H281.164V152.686ZM280.282 148.122H284.804V148.99H280.282V148.122ZM285.742 148.122H291.398V148.99H285.742V148.122ZM280.548 146.988L281.542 147.24C281.024 148.472 280.198 149.69 279.386 150.488C279.19 150.334 278.77 150.04 278.518 149.914C279.358 149.186 280.114 148.08 280.548 146.988ZM286.064 146.988L287.058 147.226C286.554 148.444 285.672 149.578 284.79 150.306C284.58 150.152 284.146 149.9 283.88 149.774C284.804 149.102 285.616 148.066 286.064 146.988ZM281.066 148.78L281.976 148.542C282.298 149.032 282.662 149.718 282.802 150.152L281.85 150.432C281.724 149.998 281.388 149.298 281.066 148.78ZM287.002 148.794L287.926 148.514C288.36 149.004 288.864 149.69 289.074 150.152L288.122 150.46C287.926 150.012 287.45 149.298 287.002 148.794ZM298.65 151.258V153.064H303.858V151.258H298.65ZM298.65 148.612V150.39H303.858V148.612H298.65ZM297.698 147.702H304.866V153.974H297.698V147.702ZM297.516 155.612H305.062V156.578H297.516V155.612ZM296.438 158.51H305.524V159.462H296.438V158.51ZM292.63 147.996H296.998V148.99H292.63V147.996ZM292.784 152.042H296.802V153.036H292.784V152.042ZM292.49 157.404C293.624 157.096 295.304 156.55 296.928 156.004L297.11 157.012C295.584 157.53 293.988 158.062 292.742 158.482L292.49 157.404ZM294.38 148.388H295.388V157.068L294.38 157.264V148.388ZM300.792 148.136H301.716V153.526H301.786V158.944H300.722V153.526H300.792V148.136Z" fill="#027142"/>
<path d="M526.878 141.391L587 126.515L647.122 141.391V170.609L587 185.485L526.878 170.609V141.391Z" fill="#C5E1FF" stroke="#96C9FF"/>
<path d="M561.73 151.234H570.788V152.242H561.73V151.234ZM561.73 154.496H570.774V155.49H561.73V154.496ZM561.66 157.842H570.802V158.836H561.66V157.842ZM561.142 151.234H562.178V156.316C562.178 158.444 561.926 161.342 560.26 163.204C560.092 162.994 559.672 162.644 559.448 162.504C560.988 160.768 561.142 158.276 561.142 156.302V151.234ZM570.368 151.234H571.404V161.692C571.404 162.378 571.236 162.7 570.774 162.882C570.298 163.05 569.486 163.064 568.156 163.05C568.114 162.77 567.946 162.308 567.792 162.028C568.786 162.07 569.738 162.056 570.004 162.056C570.27 162.042 570.368 161.958 570.368 161.692V151.234ZM565.538 151.612H566.602V162.994H565.538V151.612ZM575.366 152.41H576.458V155.462C576.458 157.758 576.164 161.034 574.372 163.204C574.19 163.008 573.728 162.686 573.462 162.574C575.184 160.502 575.366 157.576 575.366 155.462V152.41ZM579.16 150.436L580.182 150.17C580.504 150.828 580.868 151.668 581.036 152.214L579.972 152.536C579.818 151.976 579.454 151.094 579.16 150.436ZM576.052 152.41H584.83V158.122H583.766V153.404H576.052V152.41ZM576.052 156.218H584.34V157.198H576.052V156.218ZM590.78 161.846H598.186V162.658H590.78V161.846ZM593.454 153.082H594.476V154.636H593.454V153.082ZM588.134 154.174H599.964V156.806H598.928V155.014H589.142V156.806H588.134V154.174ZM590.724 155.882H597.906V158.696H590.724V157.884H596.87V156.68H590.724V155.882ZM590.766 159.662H598.802V163.106H597.766V160.488H590.766V159.662ZM590.164 155.882H591.172V163.134H590.164V155.882ZM589.282 151.318H593.804V152.186H589.282V151.318ZM594.742 151.318H600.398V152.186H594.742V151.318ZM589.548 150.184L590.542 150.436C590.024 151.668 589.198 152.886 588.386 153.684C588.19 153.53 587.77 153.236 587.518 153.11C588.358 152.382 589.114 151.276 589.548 150.184ZM595.064 150.184L596.058 150.422C595.554 151.64 594.672 152.774 593.79 153.502C593.58 153.348 593.146 153.096 592.88 152.97C593.804 152.298 594.616 151.262 595.064 150.184ZM590.066 151.976L590.976 151.738C591.298 152.228 591.662 152.914 591.802 153.348L590.85 153.628C590.724 153.194 590.388 152.494 590.066 151.976ZM596.002 151.99L596.926 151.71C597.36 152.2 597.864 152.886 598.074 153.348L597.122 153.656C596.926 153.208 596.45 152.494 596.002 151.99ZM607.65 154.454V156.26H612.858V154.454H607.65ZM607.65 151.808V153.586H612.858V151.808H607.65ZM606.698 150.898H613.866V157.17H606.698V150.898ZM606.516 158.808H614.062V159.774H606.516V158.808ZM605.438 161.706H614.524V162.658H605.438V161.706ZM601.63 151.192H605.998V152.186H601.63V151.192ZM601.784 155.238H605.802V156.232H601.784V155.238ZM601.49 160.6C602.624 160.292 604.304 159.746 605.928 159.2L606.11 160.208C604.584 160.726 602.988 161.258 601.742 161.678L601.49 160.6ZM603.38 151.584H604.388V160.264L603.38 160.46V151.584ZM609.792 151.332H610.716V156.722H610.786V162.14H609.722V156.722H609.792V151.332Z" fill="#007BFE"/>
<path d="M526.5 155L516.5 149.226V160.773L526.5 155ZM416 156H517.5V154H416V156Z" fill="url(#paint2_linear_62_98)"/>
<path d="M752.878 23.3914L813 8.51508L873.122 23.3914V52.6086L813 67.4849L752.878 52.6086V23.3914Z" fill="#C5E1FF" stroke="#96C9FF"/>
<path d="M792.588 33.052H796.088V34.046H792.588V33.052ZM791.958 33.052H792.98V37.546C792.98 39.87 792.7 43.048 790.684 45.12C790.516 44.924 790.11 44.588 789.872 44.448C791.776 42.502 791.958 39.702 791.958 37.532V33.052ZM795.612 33.052H796.662V43.146C796.662 43.594 796.676 43.86 796.746 43.93C796.816 43.986 796.9 44.014 796.998 44.014C797.096 44.014 797.278 44.014 797.404 44.014C797.53 44.014 797.628 43.986 797.698 43.902C797.768 43.832 797.81 43.706 797.838 43.37C797.866 43.062 797.88 42.32 797.894 41.368C798.104 41.578 798.44 41.732 798.692 41.83C798.692 42.628 798.636 43.65 798.594 44.014C798.524 44.406 798.398 44.644 798.202 44.798C797.992 44.924 797.74 44.98 797.446 44.98C797.25 44.98 796.914 44.98 796.746 44.98C796.466 44.98 796.144 44.91 795.934 44.714C795.696 44.518 795.612 44.252 795.612 43.048V33.052ZM785.714 35.25H791.132V36.258H785.714V35.25ZM788.052 32.24H789.06V45.106H788.052V32.24ZM787.996 35.866L788.696 36.104C788.164 38.386 787.072 41.116 785.938 42.516C785.826 42.222 785.56 41.802 785.378 41.564C786.456 40.304 787.534 37.91 787.996 35.866ZM788.962 37.406C789.382 37.798 790.88 39.464 791.202 39.87L790.558 40.724C790.152 40.052 788.92 38.484 788.43 37.91L788.962 37.406ZM799.672 35.25H804.712V36.244H799.672V35.25ZM801.842 32.24H802.85V45.106H801.842V32.24ZM801.8 35.866L802.472 36.118C801.982 38.316 800.932 40.99 799.854 42.376C799.742 42.096 799.49 41.676 799.308 41.424C800.316 40.206 801.352 37.826 801.8 35.866ZM802.794 37.28C803.172 37.672 804.544 39.31 804.852 39.716L804.194 40.57C803.816 39.898 802.71 38.33 802.262 37.77L802.794 37.28ZM806.308 32.24L807.358 32.478C806.77 34.648 805.832 36.706 804.726 38.064C804.53 37.896 804.096 37.546 803.844 37.392C804.936 36.16 805.804 34.228 806.308 32.24ZM806.112 34.536H811.516V35.53H805.65L806.112 34.536ZM811.11 34.536H812.146C812.146 34.536 812.132 34.942 812.132 35.096C811.936 41.662 811.74 43.846 811.208 44.518C810.928 44.924 810.62 45.036 810.172 45.092C809.738 45.134 809.038 45.12 808.352 45.078C808.338 44.784 808.212 44.336 808.03 44.042C808.772 44.112 809.458 44.112 809.738 44.112C809.99 44.126 810.13 44.07 810.284 43.888C810.704 43.398 810.928 41.074 811.11 34.788V34.536ZM807.974 39.254L808.772 38.988C809.388 40.038 809.99 41.41 810.214 42.278L809.332 42.6C809.15 41.718 808.562 40.318 807.974 39.254ZM806.728 36.594L807.75 36.818C807.316 38.4 806.714 40.388 806.196 41.606L805.356 41.382C805.86 40.136 806.434 38.05 806.728 36.594ZM804.32 41.284C805.58 41.172 807.498 40.948 809.374 40.71L809.402 41.536C807.666 41.816 805.902 42.068 804.544 42.264L804.32 41.284ZM816.78 43.846H824.186V44.658H816.78V43.846ZM819.454 35.082H820.476V36.636H819.454V35.082ZM814.134 36.174H825.964V38.806H824.928V37.014H815.142V38.806H814.134V36.174ZM816.724 37.882H823.906V40.696H816.724V39.884H822.87V38.68H816.724V37.882ZM816.766 41.662H824.802V45.106H823.766V42.488H816.766V41.662ZM816.164 37.882H817.172V45.134H816.164V37.882ZM815.282 33.318H819.804V34.186H815.282V33.318ZM820.742 33.318H826.398V34.186H820.742V33.318ZM815.548 32.184L816.542 32.436C816.024 33.668 815.198 34.886 814.386 35.684C814.19 35.53 813.77 35.236 813.518 35.11C814.358 34.382 815.114 33.276 815.548 32.184ZM821.064 32.184L822.058 32.422C821.554 33.64 820.672 34.774 819.79 35.502C819.58 35.348 819.146 35.096 818.88 34.97C819.804 34.298 820.616 33.262 821.064 32.184ZM816.066 33.976L816.976 33.738C817.298 34.228 817.662 34.914 817.802 35.348L816.85 35.628C816.724 35.194 816.388 34.494 816.066 33.976ZM822.002 33.99L822.926 33.71C823.36 34.2 823.864 34.886 824.074 35.348L823.122 35.656C822.926 35.208 822.45 34.494 822.002 33.99ZM833.65 36.454V38.26H838.858V36.454H833.65ZM833.65 33.808V35.586H838.858V33.808H833.65ZM832.698 32.898H839.866V39.17H832.698V32.898ZM832.516 40.808H840.062V41.774H832.516V40.808ZM831.438 43.706H840.524V44.658H831.438V43.706ZM827.63 33.192H831.998V34.186H827.63V33.192ZM827.784 37.238H831.802V38.232H827.784V37.238ZM827.49 42.6C828.624 42.292 830.304 41.746 831.928 41.2L832.11 42.208C830.584 42.726 828.988 43.258 827.742 43.678L827.49 42.6ZM829.38 33.584H830.388V42.264L829.38 42.46V33.584ZM835.792 33.332H836.716V38.722H836.786V44.14H835.722V38.722H835.792V33.332Z" fill="#007BFE"/>
<path d="M807.783 67.608C808.395 70.4892 811.227 72.3289 814.108 71.7169C816.989 71.105 818.829 68.2732 818.217 65.3919C817.605 62.5107 814.773 60.671 811.892 61.283C809.011 61.8949 807.171 64.7267 807.783 67.608ZM647.91 141.912L649.709 141.102L648.888 139.278L647.09 140.088L647.91 141.912ZM653.307 139.482L656.905 137.863L656.084 136.039L652.486 137.659L653.307 139.482ZM660.503 136.243L664.101 134.624L663.28 132.8L659.682 134.42L660.503 136.243ZM667.699 133.004L671.296 131.385L670.475 129.561L666.878 131.18L667.699 133.004ZM674.894 129.765L678.492 128.146L677.671 126.322L674.073 127.941L674.894 129.765ZM682.09 126.526L685.688 124.906L684.867 123.083L681.269 124.702L682.09 126.526ZM689.285 123.287L692.883 121.667L692.062 119.844L688.464 121.463L689.285 123.287ZM696.481 120.048L700.079 118.428L699.258 116.604L695.66 118.224L696.481 120.048ZM703.677 116.809L707.275 115.189L706.454 113.365L702.856 114.985L703.677 116.809ZM710.872 113.569L714.47 111.95L713.649 110.126L710.051 111.746L710.872 113.569ZM718.068 110.33L721.666 108.711L720.845 106.887L717.247 108.507L718.068 110.33ZM725.264 107.091L728.862 105.472L728.041 103.648L724.443 105.267L725.264 107.091ZM732.459 103.852L736.057 102.232L735.236 100.409L731.638 102.028L732.459 103.852ZM739.655 100.613L743.253 98.9933L742.432 97.1696L738.834 98.7892L739.655 100.613ZM746.851 97.3738L750.449 95.7542L749.628 93.9305L746.03 95.55L746.851 97.3738ZM754.046 94.1346L757.644 92.5151L756.823 90.6913L753.225 92.3109L754.046 94.1346ZM761.242 90.8955L764.84 89.2759L764.019 87.4522L760.421 89.0718L761.242 90.8955ZM768.438 87.6564L772.035 86.0368L771.215 84.2131L767.617 85.8326L768.438 87.6564ZM775.633 84.4173L779.231 82.7977L778.41 80.9739L774.812 82.5935L775.633 84.4173ZM782.829 81.1781L786.427 79.5586L785.606 77.7348L782.008 79.3544L782.829 81.1781ZM790.025 77.939L793.622 76.3194L792.801 74.4957L789.204 76.1153L790.025 77.939ZM797.22 74.6999L800.818 73.0803L799.997 71.2566L796.399 72.8761L797.22 74.6999ZM804.416 71.4607L808.014 69.8412L807.193 68.0174L803.595 69.637L804.416 71.4607ZM811.611 68.2216L813.41 67.4118L812.589 65.5881L810.791 66.3979L811.611 68.2216ZM807.783 67.608C808.395 70.4892 811.227 72.3289 814.108 71.7169C816.989 71.105 818.829 68.2732 818.217 65.3919C817.605 62.5107 814.773 60.671 811.892 61.283C809.011 61.8949 807.171 64.7267 807.783 67.608ZM647.91 141.912L649.709 141.102L648.888 139.278L647.09 140.088L647.91 141.912ZM653.307 139.482L656.905 137.863L656.084 136.039L652.486 137.659L653.307 139.482ZM660.503 136.243L664.101 134.624L663.28 132.8L659.682 134.42L660.503 136.243ZM667.699 133.004L671.296 131.385L670.475 129.561L666.878 131.18L667.699 133.004ZM674.894 129.765L678.492 128.146L677.671 126.322L674.073 127.941L674.894 129.765ZM682.09 126.526L685.688 124.906L684.867 123.083L681.269 124.702L682.09 126.526ZM689.285 123.287L692.883 121.667L692.062 119.844L688.464 121.463L689.285 123.287ZM696.481 120.048L700.079 118.428L699.258 116.604L695.66 118.224L696.481 120.048ZM703.677 116.809L707.275 115.189L706.454 113.365L702.856 114.985L703.677 116.809ZM710.872 113.569L714.47 111.95L713.649 110.126L710.051 111.746L710.872 113.569ZM718.068 110.33L721.666 108.711L720.845 106.887L717.247 108.507L718.068 110.33ZM725.264 107.091L728.862 105.472L728.041 103.648L724.443 105.267L725.264 107.091ZM732.459 103.852L736.057 102.232L735.236 100.409L731.638 102.028L732.459 103.852ZM739.655 100.613L743.253 98.9933L742.432 97.1696L738.834 98.7892L739.655 100.613ZM746.851 97.3738L750.449 95.7542L749.628 93.9305L746.03 95.55L746.851 97.3738ZM754.046 94.1346L757.644 92.5151L756.823 90.6913L753.225 92.3109L754.046 94.1346ZM761.242 90.8955L764.84 89.2759L764.019 87.4522L760.421 89.0718L761.242 90.8955ZM768.438 87.6564L772.035 86.0368L771.215 84.2131L767.617 85.8326L768.438 87.6564ZM775.633 84.4173L779.231 82.7977L778.41 80.9739L774.812 82.5935L775.633 84.4173ZM782.829 81.1781L786.427 79.5586L785.606 77.7348L782.008 79.3544L782.829 81.1781ZM790.025 77.939L793.622 76.3194L792.801 74.4957L789.204 76.1153L790.025 77.939ZM797.22 74.6999L800.818 73.0803L799.997 71.2566L796.399 72.8761L797.22 74.6999ZM804.416 71.4607L808.014 69.8412L807.193 68.0174L803.595 69.637L804.416 71.4607ZM811.611 68.2216L813.41 67.4118L812.589 65.5881L810.791 66.3979L811.611 68.2216Z" fill="url(#paint3_linear_62_98)"/>
<rect x="708.648" y="100.998" width="35" height="17" rx="8.5" transform="rotate(-20 708.648 100.998)" fill="#F7F2FF" stroke="#CDBFE3"/>
<path d="M718.225 104.038L724.856 101.624L725.151 102.436L718.521 104.85L718.225 104.038ZM718.81 106.941L726.32 104.208L726.611 105.008L719.101 107.742L718.81 106.941ZM723.058 105.701C724.299 107.497 725.998 108.551 728.155 108.443C728.018 108.698 727.893 109.126 727.851 109.397C725.566 109.398 723.802 108.202 722.382 106.126L723.058 105.701ZM722.707 99.5458L723.698 99.5302C723.555 100.4 723.362 101.415 723.16 102.088L722.37 102.057C722.537 101.357 722.678 100.272 722.707 99.5458ZM717.937 101.806L718.497 101.206C719.18 101.609 719.968 102.229 720.364 102.685L719.778 103.357C719.39 102.886 718.605 102.239 717.937 101.806ZM721.114 103.203L721.994 102.883L722.848 105.229C723.48 106.965 723.846 109.271 720.91 111.974C720.712 111.816 720.346 111.618 720.081 111.522C722.978 109.025 722.497 107.003 721.968 105.549L721.114 103.203ZM732.217 98.728L737.472 96.8154L737.755 97.5935L732.5 99.506L732.217 98.728ZM732.977 101.657L738.919 99.4939L739.203 100.272L733.26 102.435L732.977 101.657ZM734.494 98.5633L735.351 98.2513L735.922 99.8187C736.529 101.488 737.172 104.025 735.127 106.863C734.926 106.732 734.546 106.564 734.267 106.5C736.276 103.879 735.59 101.574 735.061 100.119L734.494 98.5633ZM736.32 101.193C737.448 102.749 738.973 103.816 740.673 103.925C740.543 104.164 740.41 104.57 740.363 104.83C738.535 104.614 736.931 103.398 735.671 101.621L736.32 101.193ZM735.466 95.0936L736.425 95.0256C736.268 95.9638 736.043 97.0291 735.801 97.7683L735.012 97.7747C735.223 97.0211 735.419 95.8769 735.466 95.0936ZM731.909 96.7586L732.474 96.1699C733.125 96.5204 733.868 97.0543 734.248 97.4653L733.67 98.1227C733.286 97.7004 732.553 97.1244 731.909 96.7586ZM726.962 98.5337L731.202 96.9905L731.481 97.7573L727.241 99.3005L726.962 98.5337ZM728.902 100.496L731.09 99.7002L731.352 100.422L729.165 101.218L728.902 100.496ZM729.748 102.819L731.935 102.023L732.198 102.745L730.01 103.541L729.748 102.819ZM727.722 98.6914L728.477 98.4164L731.104 105.633L730.348 105.908L727.722 98.6914ZM730.108 97.81L730.852 97.5391L734.316 107.056L733.572 107.327L730.108 97.81ZM729.577 106.036C730.704 105.447 732.413 104.493 734.047 103.579L734.37 104.291C732.826 105.172 731.212 106.105 730.049 106.771L729.577 106.036Z" fill="#CDBFE3"/>
<path d="M529 100.804L528.94 99.8062L528.76 99.817L528.595 99.89L529 100.804ZM663 92.8045L663.06 93.8027L663.25 93.7913L663.423 93.7107L663 92.8045ZM753 50.8045L741.497 49.8015L746.38 60.2652L753 50.8045ZM416.405 151.719L529.405 101.719L528.595 99.89L415.595 149.89L416.405 151.719ZM529.06 101.803L663.06 93.8027L662.94 91.8063L528.94 99.8062L529.06 101.803ZM663.423 93.7107L745.267 55.5166L744.421 53.7043L662.577 91.8983L663.423 93.7107Z" fill="url(#paint4_linear_62_98)"/>
<path d="M780.878 141.391L841 126.515L901.122 141.391V170.609L841 185.485L780.878 170.609V141.391Z" fill="#C5E1FF" stroke="#96C9FF"/>
<path d="M816.248 153.446H824.704V154.398H816.248V153.446ZM816.248 156.246H824.536V157.156H816.248V156.246ZM816.01 159.116H824.592V160.04H816.01V159.116ZM815.674 153.446H816.696V156.96C816.696 158.948 816.332 161.524 814.19 163.19C814.05 162.98 813.672 162.602 813.462 162.448C815.45 160.908 815.674 158.738 815.674 156.946V153.446ZM824.144 153.446H825.194V161.79C825.194 162.476 825.012 162.812 824.494 162.966C823.962 163.134 823.038 163.148 821.624 163.148C821.568 162.868 821.372 162.406 821.218 162.126C822.338 162.168 823.43 162.168 823.752 162.14C824.06 162.14 824.144 162.056 824.144 161.79V153.446ZM819.804 153.838H820.798V159.578H819.804V153.838ZM817.578 151.066H821.988V151.962H817.578V151.066ZM817.718 150.212L818.852 150.408C817.928 152.074 816.528 153.936 814.54 155.378C814.372 155.126 814.036 154.776 813.784 154.622C815.674 153.348 817.004 151.612 817.718 150.212ZM821.638 151.066H821.862L822.044 151.024L822.744 151.486C822.268 152.424 821.47 153.516 820.826 154.202C820.63 154.048 820.294 153.838 820.07 153.712C820.658 153.082 821.316 152.004 821.638 151.262V151.066ZM829.772 157.24H838.564V158.206H829.772V157.24ZM833.58 154.104H834.63V157.73H833.58V154.104ZM829.73 153.726H839.278V158.822H838.214V154.678H829.73V153.726ZM829.198 153.726H830.248V160.894C830.248 161.79 830.542 161.986 832.082 161.986C832.824 161.986 836.66 161.986 837.598 161.986C838.956 161.986 839.18 161.622 839.348 159.9C839.614 160.082 840.062 160.236 840.384 160.292C840.146 162.364 839.712 162.98 837.626 162.98C837.066 162.98 832.67 162.98 832.152 162.98C829.884 162.98 829.198 162.574 829.198 160.894V153.726ZM831.536 151.178H835.932V152.116H831.06L831.536 151.178ZM831.564 150.198L832.726 150.422C831.732 152.088 830.276 153.936 828.26 155.406C828.092 155.154 827.742 154.804 827.49 154.636C829.394 153.348 830.808 151.612 831.564 150.198ZM835.47 151.178H835.708L835.918 151.122L836.632 151.584C836.086 152.662 835.26 153.866 834.546 154.622C834.392 154.412 834.07 154.104 833.874 153.95C834.476 153.278 835.148 152.172 835.47 151.388V151.178ZM844.78 161.846H852.186V162.658H844.78V161.846ZM847.454 153.082H848.476V154.636H847.454V153.082ZM842.134 154.174H853.964V156.806H852.928V155.014H843.142V156.806H842.134V154.174ZM844.724 155.882H851.906V158.696H844.724V157.884H850.87V156.68H844.724V155.882ZM844.766 159.662H852.802V163.106H851.766V160.488H844.766V159.662ZM844.164 155.882H845.172V163.134H844.164V155.882ZM843.282 151.318H847.804V152.186H843.282V151.318ZM848.742 151.318H854.398V152.186H848.742V151.318ZM843.548 150.184L844.542 150.436C844.024 151.668 843.198 152.886 842.386 153.684C842.19 153.53 841.77 153.236 841.518 153.11C842.358 152.382 843.114 151.276 843.548 150.184ZM849.064 150.184L850.058 150.422C849.554 151.64 848.672 152.774 847.79 153.502C847.58 153.348 847.146 153.096 846.88 152.97C847.804 152.298 848.616 151.262 849.064 150.184ZM844.066 151.976L844.976 151.738C845.298 152.228 845.662 152.914 845.802 153.348L844.85 153.628C844.724 153.194 844.388 152.494 844.066 151.976ZM850.002 151.99L850.926 151.71C851.36 152.2 851.864 152.886 852.074 153.348L851.122 153.656C850.926 153.208 850.45 152.494 850.002 151.99ZM861.65 154.454V156.26H866.858V154.454H861.65ZM861.65 151.808V153.586H866.858V151.808H861.65ZM860.698 150.898H867.866V157.17H860.698V150.898ZM860.516 158.808H868.062V159.774H860.516V158.808ZM859.438 161.706H868.524V162.658H859.438V161.706ZM855.63 151.192H859.998V152.186H855.63V151.192ZM855.784 155.238H859.802V156.232H855.784V155.238ZM855.49 160.6C856.624 160.292 858.304 159.746 859.928 159.2L860.11 160.208C858.584 160.726 856.988 161.258 855.742 161.678L855.49 160.6ZM857.38 151.584H858.388V160.264L857.38 160.46V151.584ZM863.792 151.332H864.716V156.722H864.786V162.14H863.722V156.722H863.792V151.332Z" fill="#007BFE"/>
<path d="M523 204L522.538 204.887L522.721 204.982L522.926 204.997L523 204ZM778 222.804L777.926 223.802L778.236 223.825L778.504 223.668L778 222.804ZM841 186L829.453 186.059L835.278 196.029L841 186ZM418.538 150.691L522.538 204.887L523.462 203.113L419.462 148.918L418.538 150.691ZM522.926 204.997L777.926 223.802L778.074 221.807L523.073 203.003L522.926 204.997ZM778.504 223.668L833.733 191.403L832.724 189.676L777.496 221.941L778.504 223.668Z" fill="url(#paint5_linear_62_98)"/>
<path d="M1034.88 141.391L1095 126.515L1155.12 141.391V170.609L1095 185.485L1034.88 170.609V141.391Z" fill="#C5E1FF" stroke="#96C9FF"/>
<path d="M1067.84 151.22H1080.19V152.172H1067.84V151.22ZM1071.12 150.254H1072.17V153.278H1071.12V150.254ZM1075.81 150.254H1076.87V153.124H1075.81V150.254ZM1067.8 158.318H1080.23V159.256H1067.8V158.318ZM1073.41 157.24H1074.5V163.12H1073.41V157.24ZM1073.01 158.71L1073.86 159.116C1072.57 160.726 1070.26 162.168 1068.19 162.868C1068.04 162.588 1067.71 162.168 1067.46 161.944C1069.52 161.37 1071.83 160.082 1073.01 158.71ZM1074.95 158.78C1076.1 160.152 1078.35 161.328 1080.47 161.846C1080.23 162.07 1079.91 162.49 1079.75 162.77C1077.64 162.126 1075.37 160.754 1074.13 159.13L1074.95 158.78ZM1078.34 152.984L1079.18 153.81C1076.45 154.44 1072.1 154.748 1068.51 154.818C1068.48 154.552 1068.36 154.132 1068.26 153.908C1071.79 153.824 1076.07 153.516 1078.34 152.984ZM1068.9 155.532L1069.79 155.168C1070.33 155.784 1070.88 156.638 1071.07 157.24L1070.14 157.646C1069.95 157.044 1069.42 156.176 1068.9 155.532ZM1072.77 155.168L1073.69 154.86C1074.08 155.476 1074.48 156.26 1074.57 156.82L1073.59 157.156C1073.5 156.61 1073.15 155.784 1072.77 155.168ZM1078.28 154.636L1079.35 155.028C1078.77 155.966 1078.07 157.044 1077.51 157.73L1076.7 157.366C1077.23 156.652 1077.92 155.462 1078.28 154.636ZM1087.41 153.152H1088.5V163.106H1087.41V153.152ZM1084.09 155.896V157.394H1091.98V155.896H1084.09ZM1084.09 153.558V155.056H1091.98V153.558H1084.09ZM1083.07 152.662H1093.05V158.29H1083.07V152.662ZM1081.74 159.62H1094.27V160.6H1081.74V159.62ZM1084.29 150.73L1085.19 150.31C1085.75 150.94 1086.4 151.808 1086.68 152.382L1085.75 152.858C1085.48 152.284 1084.85 151.374 1084.29 150.73ZM1090.93 150.31L1092.06 150.674C1091.5 151.57 1090.8 152.578 1090.27 153.222L1089.37 152.872C1089.89 152.186 1090.56 151.094 1090.93 150.31ZM1098.78 161.846H1106.19V162.658H1098.78V161.846ZM1101.45 153.082H1102.48V154.636H1101.45V153.082ZM1096.13 154.174H1107.96V156.806H1106.93V155.014H1097.14V156.806H1096.13V154.174ZM1098.72 155.882H1105.91V158.696H1098.72V157.884H1104.87V156.68H1098.72V155.882ZM1098.77 159.662H1106.8V163.106H1105.77V160.488H1098.77V159.662ZM1098.16 155.882H1099.17V163.134H1098.16V155.882ZM1097.28 151.318H1101.8V152.186H1097.28V151.318ZM1102.74 151.318H1108.4V152.186H1102.74V151.318ZM1097.55 150.184L1098.54 150.436C1098.02 151.668 1097.2 152.886 1096.39 153.684C1096.19 153.53 1095.77 153.236 1095.52 153.11C1096.36 152.382 1097.11 151.276 1097.55 150.184ZM1103.06 150.184L1104.06 150.422C1103.55 151.64 1102.67 152.774 1101.79 153.502C1101.58 153.348 1101.15 153.096 1100.88 152.97C1101.8 152.298 1102.62 151.262 1103.06 150.184ZM1098.07 151.976L1098.98 151.738C1099.3 152.228 1099.66 152.914 1099.8 153.348L1098.85 153.628C1098.72 153.194 1098.39 152.494 1098.07 151.976ZM1104 151.99L1104.93 151.71C1105.36 152.2 1105.86 152.886 1106.07 153.348L1105.12 153.656C1104.93 153.208 1104.45 152.494 1104 151.99ZM1115.65 154.454V156.26H1120.86V154.454H1115.65ZM1115.65 151.808V153.586H1120.86V151.808H1115.65ZM1114.7 150.898H1121.87V157.17H1114.7V150.898ZM1114.52 158.808H1122.06V159.774H1114.52V158.808ZM1113.44 161.706H1122.52V162.658H1113.44V161.706ZM1109.63 151.192H1114V152.186H1109.63V151.192ZM1109.78 155.238H1113.8V156.232H1109.78V155.238ZM1109.49 160.6C1110.62 160.292 1112.3 159.746 1113.93 159.2L1114.11 160.208C1112.58 160.726 1110.99 161.258 1109.74 161.678L1109.49 160.6ZM1111.38 151.584H1112.39V160.264L1111.38 160.46V151.584ZM1117.79 151.332H1118.72V156.722H1118.79V162.14H1117.72V156.722H1117.79V151.332Z" fill="#007BFE"/>
<path d="M521 210.804L520.531 211.688L520.711 211.783L520.914 211.801L521 210.804ZM1042 223L1042.04 223.999L1042.32 223.989L1042.56 223.827L1042 223ZM1095 187L1083.48 187.843L1089.97 197.395L1095 187ZM775 232.804L774.914 233.801L774.975 233.806L775.037 233.804L775 232.804ZM415.531 155.883L520.531 211.688L521.469 209.921L416.469 154.117L415.531 155.883ZM1042.56 223.827L1088.12 192.884L1086.99 191.23L1041.44 222.173L1042.56 223.827ZM520.914 211.801L774.914 233.801L775.086 231.808L521.086 209.808L520.914 211.801ZM775.037 233.804L1042.04 223.999L1041.96 222.001L774.963 231.805L775.037 233.804Z" fill="url(#paint6_linear_62_98)"/>
<path d="M520.062 217.117L519.591 218L519.764 218.092L519.959 218.112L520.062 217.117ZM1298.06 245.804L1298.06 246.804L1298.55 246.804L1298.85 246.42L1298.06 245.804ZM1344 187L1333.29 191.326L1342.39 198.435L1344 187ZM798.094 245.804L797.992 246.799L798.043 246.804L798.094 246.804L798.094 245.804ZM413.537 161.474L519.591 218L520.532 216.235L414.478 159.709L413.537 161.474ZM1298.85 246.42L1339.25 194.708L1337.67 193.477L1297.27 245.189L1298.85 246.42ZM519.959 218.112L797.992 246.799L798.197 244.81L520.164 216.123L519.959 218.112ZM798.094 246.804L1298.06 246.804L1298.06 244.804L798.094 244.804L798.094 246.804Z" fill="url(#paint7_linear_62_98)"/>
<path d="M1283.88 141.391L1344 126.515L1404.12 141.391V170.609L1344 185.485L1283.88 170.609V141.391Z" fill="#C5E1FF" stroke="#96C9FF"/>
<path d="M1317.18 151.486L1317.72 150.758C1318.73 151.094 1320.02 151.696 1320.66 152.186L1320.12 153.012C1319.49 152.508 1318.21 151.864 1317.18 151.486ZM1316.69 155.07C1317.71 154.776 1319.22 154.3 1320.75 153.81L1320.91 154.734C1319.54 155.196 1318.11 155.658 1316.99 156.036L1316.69 155.07ZM1322.78 150.296L1323.77 150.436C1323.29 151.668 1322.54 152.956 1321.28 153.978C1321.11 153.74 1320.77 153.446 1320.54 153.32C1321.68 152.466 1322.41 151.276 1322.78 150.296ZM1322.79 151.542H1328.1V152.368H1322.2L1322.79 151.542ZM1327.86 151.542H1328.03L1328.21 151.5L1328.96 151.71C1328.6 152.48 1328.19 153.32 1327.83 153.88L1326.92 153.614C1327.23 153.124 1327.61 152.354 1327.86 151.682V151.542ZM1318.55 156.806H1327.61V160.614H1326.53V157.772H1319.58V160.712H1318.55V156.806ZM1322.61 158.192H1323.64C1323.17 160.978 1321.88 162.49 1317.16 163.148C1317.09 162.91 1316.87 162.504 1316.69 162.294C1321.14 161.748 1322.2 160.502 1322.61 158.192ZM1323.21 160.964L1323.8 160.194C1325.52 160.712 1327.86 161.594 1329.09 162.196L1328.47 163.078C1327.28 162.448 1324.97 161.524 1323.21 160.964ZM1324.53 151.962H1325.58C1325.13 154.006 1324.08 155.658 1321.12 156.554C1321.01 156.316 1320.76 155.952 1320.55 155.784C1323.28 155.056 1324.15 153.586 1324.53 151.962ZM1325.14 152.914C1325.87 154.216 1327.45 155.224 1329.29 155.616C1329.06 155.812 1328.8 156.19 1328.66 156.456C1326.75 155.91 1325.16 154.706 1324.36 153.138L1325.14 152.914ZM1335.08 150.926H1343.3V151.892H1335.08V150.926ZM1334.73 150.926H1335.75V154.776C1335.75 157.212 1335.52 160.726 1333.86 163.078C1333.67 162.896 1333.23 162.616 1332.98 162.518C1334.58 160.264 1334.73 157.086 1334.73 154.776V150.926ZM1337.52 156.218V157.45H1341.79V156.218H1337.52ZM1337.52 154.23V155.448H1341.79V154.23H1337.52ZM1336.57 153.418H1342.77V158.262H1336.57V153.418ZM1337.06 159.046L1338.01 159.27C1337.57 160.404 1336.87 161.566 1336.19 162.322C1335.99 162.168 1335.59 161.902 1335.36 161.776C1336.05 161.062 1336.68 160.054 1337.06 159.046ZM1341.02 159.298L1341.93 158.92C1342.57 159.788 1343.3 160.95 1343.58 161.72L1342.63 162.154C1342.36 161.384 1341.68 160.18 1341.02 159.298ZM1339.14 151.682L1340.28 151.906C1340.07 152.634 1339.84 153.446 1339.65 153.978L1338.72 153.754C1338.88 153.18 1339.07 152.284 1339.14 151.682ZM1339.09 157.94H1340.08V162.028C1340.08 162.546 1340 162.826 1339.6 162.966C1339.23 163.12 1338.62 163.134 1337.69 163.12C1337.64 162.854 1337.52 162.476 1337.39 162.21C1338.06 162.238 1338.67 162.224 1338.85 162.224C1339.03 162.21 1339.09 162.168 1339.09 162.014V157.94ZM1331.2 151.136L1331.81 150.38C1332.65 150.772 1333.67 151.402 1334.16 151.892L1333.53 152.732C1333.05 152.228 1332.04 151.556 1331.2 151.136ZM1330.52 154.916L1331.12 154.132C1331.96 154.496 1332.98 155.084 1333.5 155.546L1332.88 156.4C1332.39 155.924 1331.37 155.294 1330.52 154.916ZM1330.81 162.336C1331.44 161.244 1332.31 159.396 1332.94 157.814L1333.79 158.402C1333.21 159.886 1332.42 161.622 1331.75 162.924L1330.81 162.336ZM1347.78 161.846H1355.19V162.658H1347.78V161.846ZM1350.45 153.082H1351.48V154.636H1350.45V153.082ZM1345.13 154.174H1356.96V156.806H1355.93V155.014H1346.14V156.806H1345.13V154.174ZM1347.72 155.882H1354.91V158.696H1347.72V157.884H1353.87V156.68H1347.72V155.882ZM1347.77 159.662H1355.8V163.106H1354.77V160.488H1347.77V159.662ZM1347.16 155.882H1348.17V163.134H1347.16V155.882ZM1346.28 151.318H1350.8V152.186H1346.28V151.318ZM1351.74 151.318H1357.4V152.186H1351.74V151.318ZM1346.55 150.184L1347.54 150.436C1347.02 151.668 1346.2 152.886 1345.39 153.684C1345.19 153.53 1344.77 153.236 1344.52 153.11C1345.36 152.382 1346.11 151.276 1346.55 150.184ZM1352.06 150.184L1353.06 150.422C1352.55 151.64 1351.67 152.774 1350.79 153.502C1350.58 153.348 1350.15 153.096 1349.88 152.97C1350.8 152.298 1351.62 151.262 1352.06 150.184ZM1347.07 151.976L1347.98 151.738C1348.3 152.228 1348.66 152.914 1348.8 153.348L1347.85 153.628C1347.72 153.194 1347.39 152.494 1347.07 151.976ZM1353 151.99L1353.93 151.71C1354.36 152.2 1354.86 152.886 1355.07 153.348L1354.12 153.656C1353.93 153.208 1353.45 152.494 1353 151.99ZM1364.65 154.454V156.26H1369.86V154.454H1364.65ZM1364.65 151.808V153.586H1369.86V151.808H1364.65ZM1363.7 150.898H1370.87V157.17H1363.7V150.898ZM1363.52 158.808H1371.06V159.774H1363.52V158.808ZM1362.44 161.706H1371.52V162.658H1362.44V161.706ZM1358.63 151.192H1363V152.186H1358.63V151.192ZM1358.78 155.238H1362.8V156.232H1358.78V155.238ZM1358.49 160.6C1359.62 160.292 1361.3 159.746 1362.93 159.2L1363.11 160.208C1361.58 160.726 1359.99 161.258 1358.74 161.678L1358.49 160.6ZM1360.38 151.584H1361.39V160.264L1360.38 160.46V151.584ZM1366.79 151.332H1367.72V156.722H1367.79V162.14H1366.72V156.722H1366.79V151.332Z" fill="#007BFE"/>
<path d="M1034.88 23.3914L1095 8.51508L1155.12 23.3914V52.6086L1095 67.4849L1034.88 52.6086V23.3914Z" fill="#C5E1FF" stroke="#96C9FF"/>
<path d="M1072.47 39.842H1079.77V40.808H1072.47V39.842ZM1071.59 43.762H1080.44V44.728H1071.59V43.762ZM1072.01 33.71H1080.31V35.992H1079.35V34.62H1072.94V36.118H1072.01V33.71ZM1075.53 32.24H1076.55V34.298H1075.53V32.24ZM1075.51 40.304H1076.55V44.266H1075.51V40.304ZM1076.72 34.508H1077.68V37.378C1077.68 37.672 1077.74 37.714 1078.06 37.714C1078.2 37.714 1078.91 37.714 1079.1 37.714C1079.39 37.714 1079.45 37.574 1079.47 36.496C1079.67 36.65 1080.06 36.804 1080.33 36.86C1080.23 38.246 1079.98 38.596 1079.21 38.596C1079 38.596 1078.12 38.596 1077.92 38.596C1076.94 38.596 1076.72 38.33 1076.72 37.378V34.508ZM1074.42 34.55H1075.39C1075.27 36.986 1074.8 38.33 1072.47 39.03C1072.39 38.806 1072.15 38.47 1071.96 38.288C1073.99 37.714 1074.34 36.636 1074.42 34.55ZM1067.38 39.506C1068.47 39.17 1070.11 38.596 1071.69 38.036L1071.87 38.988C1070.4 39.548 1068.85 40.108 1067.64 40.528L1067.38 39.506ZM1067.57 35.068H1071.77V36.048H1067.57V35.068ZM1069.34 32.254H1070.32V43.902C1070.32 44.49 1070.18 44.77 1069.83 44.938C1069.51 45.106 1068.96 45.134 1068.08 45.134C1068.04 44.882 1067.91 44.448 1067.77 44.154C1068.39 44.168 1068.92 44.168 1069.09 44.154C1069.25 44.154 1069.34 44.112 1069.34 43.902V32.254ZM1089.46 32.422H1090.51V45.12H1089.46V32.422ZM1087.03 32.954L1088.04 33.15C1087.66 35.11 1087.02 37.028 1086.22 38.274C1086.01 38.12 1085.58 37.868 1085.31 37.756C1086.12 36.58 1086.71 34.774 1087.03 32.954ZM1087.17 35.11H1093.71V36.146H1086.91L1087.17 35.11ZM1085.42 39.226H1094.33V40.262H1085.42V39.226ZM1084.74 32.296L1085.73 32.604C1084.85 34.97 1083.49 37.336 1082.04 38.918C1081.94 38.68 1081.63 38.134 1081.43 37.882C1082.75 36.524 1084 34.424 1084.74 32.296ZM1083.32 35.908L1084.32 34.914L1084.33 34.928V45.106H1083.32V35.908ZM1098.78 43.846H1106.19V44.658H1098.78V43.846ZM1101.45 35.082H1102.48V36.636H1101.45V35.082ZM1096.13 36.174H1107.96V38.806H1106.93V37.014H1097.14V38.806H1096.13V36.174ZM1098.72 37.882H1105.91V40.696H1098.72V39.884H1104.87V38.68H1098.72V37.882ZM1098.77 41.662H1106.8V45.106H1105.77V42.488H1098.77V41.662ZM1098.16 37.882H1099.17V45.134H1098.16V37.882ZM1097.28 33.318H1101.8V34.186H1097.28V33.318ZM1102.74 33.318H1108.4V34.186H1102.74V33.318ZM1097.55 32.184L1098.54 32.436C1098.02 33.668 1097.2 34.886 1096.39 35.684C1096.19 35.53 1095.77 35.236 1095.52 35.11C1096.36 34.382 1097.11 33.276 1097.55 32.184ZM1103.06 32.184L1104.06 32.422C1103.55 33.64 1102.67 34.774 1101.79 35.502C1101.58 35.348 1101.15 35.096 1100.88 34.97C1101.8 34.298 1102.62 33.262 1103.06 32.184ZM1098.07 33.976L1098.98 33.738C1099.3 34.228 1099.66 34.914 1099.8 35.348L1098.85 35.628C1098.72 35.194 1098.39 34.494 1098.07 33.976ZM1104 33.99L1104.93 33.71C1105.36 34.2 1105.86 34.886 1106.07 35.348L1105.12 35.656C1104.93 35.208 1104.45 34.494 1104 33.99ZM1115.65 36.454V38.26H1120.86V36.454H1115.65ZM1115.65 33.808V35.586H1120.86V33.808H1115.65ZM1114.7 32.898H1121.87V39.17H1114.7V32.898ZM1114.52 40.808H1122.06V41.774H1114.52V40.808ZM1113.44 43.706H1122.52V44.658H1113.44V43.706ZM1109.63 33.192H1114V34.186H1109.63V33.192ZM1109.78 37.238H1113.8V38.232H1109.78V37.238ZM1109.49 42.6C1110.62 42.292 1112.3 41.746 1113.93 41.2L1114.11 42.208C1112.58 42.726 1110.99 43.258 1109.74 43.678L1109.49 42.6ZM1111.38 33.584H1112.39V42.264L1111.38 42.46V33.584ZM1117.79 33.332H1118.72V38.722H1118.79V44.14H1117.72V38.722H1117.79V33.332Z" fill="#007BFE"/>
<path d="M1095 68L1089.23 78H1100.77L1095 68ZM1096 126V77H1094V126H1096Z" fill="#96C9FF"/>
<path d="M526.878 24.3294L587 9.45316L647.121 24.3294V53.5467L587 68.423L526.878 53.5467V24.3294Z" fill="#C5E1FF" stroke="#96C9FF"/>
<path d="M560.456 34.1301H571.488V35.1661H560.456V34.1301ZM559.728 40.0801H572.286V41.1301H559.728V40.0801ZM561.436 36.1321L562.374 35.8381C562.948 36.8601 563.522 38.1901 563.718 39.0161L562.71 39.3521C562.514 38.5261 561.968 37.1681 561.436 36.1321ZM569.556 35.7821L570.676 36.0901C570.144 37.2241 569.486 38.5681 568.94 39.4081L568.044 39.1141C568.562 38.2321 569.22 36.7901 569.556 35.7821ZM565.426 34.5361H566.504V46.0581H565.426V34.5361ZM576.01 44.4201H583.892V45.4421H576.01V44.4201ZM575.534 40.0941H584.452V46.0301H583.346V41.1021H576.598V46.0581H575.534V40.0941ZM578.348 33.1361L579.496 33.5421C578.656 35.1661 577.48 37.0981 576.542 38.3301L575.632 37.9381C576.556 36.6921 577.704 34.6341 578.348 33.1361ZM581.708 35.4041L582.534 34.7881C583.962 35.9221 585.614 37.5741 586.342 38.7361L585.446 39.4361C584.746 38.2741 583.15 36.5801 581.708 35.4041ZM573.882 37.4761C576.542 37.4061 580.854 37.2241 584.844 37.0421L584.788 38.0501C580.854 38.2601 576.626 38.4421 573.952 38.5541L573.882 37.4761ZM589.982 35.6281H590.822V39.6321C590.822 41.6761 590.556 44.3781 588.092 45.9881C587.966 45.8061 587.714 45.5121 587.518 45.3581C589.828 43.9441 589.982 41.4241 589.982 39.6321V35.6281ZM590.472 43.1181L591.13 42.6421C591.774 43.3981 592.558 44.4201 592.908 45.0641L592.208 45.6241C591.872 44.9661 591.13 43.9021 590.472 43.1181ZM588.19 33.8501H592.572V42.4321H591.732V34.7181H589.016V42.4601H588.19V33.8501ZM592.922 38.6381H600.23V39.6181H592.922V38.6381ZM597.192 39.1981C597.724 41.6621 598.858 43.8881 600.51 44.9521C600.272 45.1201 599.964 45.4981 599.796 45.7641C598.046 44.5041 596.898 42.1521 596.282 39.4081L597.192 39.1981ZM593.986 46.1421C593.916 45.9041 593.72 45.4981 593.566 45.2881C593.804 45.1761 594.182 44.9101 594.182 44.3501V33.4721H595.162V45.2041C595.162 45.2041 593.986 45.7781 593.986 46.1421ZM598.774 33.7941L599.74 34.1021C598.942 35.6841 597.654 37.2101 596.408 38.2041C596.24 38.0081 595.862 37.6161 595.638 37.4341C596.87 36.5521 598.06 35.2081 598.774 33.7941ZM593.986 46.1421L593.874 45.2181L594.294 44.8121L597.234 43.7621C597.234 44.0421 597.276 44.4621 597.318 44.6721C594.616 45.7781 594.224 45.9461 593.986 46.1421ZM604.64 34.6901V36.9441H611.458V34.6901H604.64ZM603.618 33.7661H612.536V37.8821H603.618V33.7661ZM601.672 38.9601H614.286V39.9401H601.672V38.9601ZM604.668 41.1721H611.808V42.1521H604.668V41.1721ZM611.43 41.1721H612.55C612.55 41.1721 612.522 41.5081 612.494 41.6621C612.13 44.1261 611.794 45.2181 611.262 45.6801C610.926 45.9741 610.59 46.0441 610.044 46.0721C609.568 46.1001 608.644 46.0721 607.664 46.0161C607.636 45.7221 607.496 45.3021 607.3 45.0221C608.294 45.1061 609.316 45.1201 609.694 45.1201C610.03 45.1201 610.212 45.1061 610.38 44.9941C610.8 44.6581 611.122 43.6221 611.416 41.3261L611.43 41.1721ZM604.934 39.2261L606.04 39.3941C605.662 40.6261 605.144 42.1521 604.738 43.1181L603.618 42.9221C604.038 41.9561 604.584 40.4021 604.934 39.2261Z" fill="#007BFE"/>
<path d="M520.783 40.0463C521.395 42.9276 524.227 44.7672 527.108 44.1553C529.989 43.5433 531.829 40.7115 531.217 37.8303C530.605 34.949 527.773 33.1094 524.892 33.7214C522.011 34.3333 520.171 37.1651 520.783 40.0463ZM359 39.9383L360.988 39.9383L360.988 37.9383L359 37.9383L359 39.9383ZM364.964 39.9383L368.94 39.9383L368.94 37.9383L364.964 37.9383L364.964 39.9383ZM372.917 39.9383L376.893 39.9383L376.893 37.9383L372.917 37.9383L372.917 39.9383ZM380.869 39.9383L384.845 39.9383L384.845 37.9383L380.869 37.9383L380.869 39.9383ZM388.821 39.9383L392.798 39.9383L392.798 37.9383L388.821 37.9383L388.821 39.9383ZM396.774 39.9383L400.75 39.9383L400.75 37.9383L396.774 37.9383L396.774 39.9383ZM404.726 39.9383L408.702 39.9383L408.702 37.9383L404.726 37.9383L404.726 39.9383ZM412.679 39.9383L416.655 39.9383L416.655 37.9383L412.679 37.9383L412.679 39.9383ZM420.631 39.9383L424.607 39.9383L424.607 37.9383L420.631 37.9383L420.631 39.9383ZM428.583 39.9383L432.56 39.9383L432.56 37.9383L428.583 37.9383L428.583 39.9383ZM436.536 39.9383L440.512 39.9383L440.512 37.9383L436.536 37.9383L436.536 39.9383ZM444.488 39.9383L448.464 39.9383L448.464 37.9383L444.488 37.9383L444.488 39.9383ZM452.44 39.9383L456.417 39.9383L456.417 37.9383L452.44 37.9383L452.44 39.9383ZM460.393 39.9383L464.369 39.9383L464.369 37.9383L460.393 37.9383L460.393 39.9383ZM468.345 39.9383L472.321 39.9383L472.321 37.9383L468.345 37.9383L468.345 39.9383ZM476.298 39.9383L480.274 39.9383L480.274 37.9383L476.298 37.9383L476.298 39.9383ZM484.25 39.9383L488.226 39.9383L488.226 37.9383L484.25 37.9383L484.25 39.9383ZM492.202 39.9383L496.179 39.9383L496.179 37.9383L492.202 37.9383L492.202 39.9383ZM500.155 39.9383L504.131 39.9383L504.131 37.9383L500.155 37.9383L500.155 39.9383ZM508.107 39.9383L512.083 39.9383L512.083 37.9383L508.107 37.9383L508.107 39.9383ZM516.06 39.9383L520.036 39.9383L520.036 37.9383L516.06 37.9383L516.06 39.9383ZM524.012 39.9383L526 39.9383L526 37.9383L524.012 37.9383L524.012 39.9383ZM520.783 40.0463C521.395 42.9276 524.227 44.7672 527.108 44.1553C529.989 43.5433 531.829 40.7115 531.217 37.8303C530.605 34.949 527.773 33.1094 524.892 33.7214C522.011 34.3333 520.171 37.1651 520.783 40.0463ZM359 39.9383L360.988 39.9383L360.988 37.9383L359 37.9383L359 39.9383ZM364.964 39.9383L368.94 39.9383L368.94 37.9383L364.964 37.9383L364.964 39.9383ZM372.917 39.9383L376.893 39.9383L376.893 37.9383L372.917 37.9383L372.917 39.9383ZM380.869 39.9383L384.845 39.9383L384.845 37.9383L380.869 37.9383L380.869 39.9383ZM388.821 39.9383L392.798 39.9383L392.798 37.9383L388.821 37.9383L388.821 39.9383ZM396.774 39.9383L400.75 39.9383L400.75 37.9383L396.774 37.9383L396.774 39.9383ZM404.726 39.9383L408.702 39.9383L408.702 37.9383L404.726 37.9383L404.726 39.9383ZM412.679 39.9383L416.655 39.9383L416.655 37.9383L412.679 37.9383L412.679 39.9383ZM420.631 39.9383L424.607 39.9383L424.607 37.9383L420.631 37.9383L420.631 39.9383ZM428.583 39.9383L432.56 39.9383L432.56 37.9383L428.583 37.9383L428.583 39.9383ZM436.536 39.9383L440.512 39.9383L440.512 37.9383L436.536 37.9383L436.536 39.9383ZM444.488 39.9383L448.464 39.9383L448.464 37.9383L444.488 37.9383L444.488 39.9383ZM452.44 39.9383L456.417 39.9383L456.417 37.9383L452.44 37.9383L452.44 39.9383ZM460.393 39.9383L464.369 39.9383L464.369 37.9383L460.393 37.9383L460.393 39.9383ZM468.345 39.9383L472.321 39.9383L472.321 37.9383L468.345 37.9383L468.345 39.9383ZM476.298 39.9383L480.274 39.9383L480.274 37.9383L476.298 37.9383L476.298 39.9383ZM484.25 39.9383L488.226 39.9383L488.226 37.9383L484.25 37.9383L484.25 39.9383ZM492.202 39.9383L496.179 39.9383L496.179 37.9383L492.202 37.9383L492.202 39.9383ZM500.155 39.9383L504.131 39.9383L504.131 37.9383L500.155 37.9383L500.155 39.9383ZM508.107 39.9383L512.083 39.9383L512.083 37.9383L508.107 37.9383L508.107 39.9383ZM516.06 39.9383L520.036 39.9383L520.036 37.9383L516.06 37.9383L516.06 39.9383ZM524.012 39.9383L526 39.9383L526 37.9383L524.012 37.9383L524.012 39.9383Z" fill="url(#paint8_linear_62_98)"/>
<rect x="424.5" y="30.4381" width="35" height="17" rx="8.5" fill="#F7F2FF" stroke="#CDBFE3"/>
<path d="M430.564 36.6781H434.08V37.5181H430.564V36.6781ZM431.92 33.8581H432.784V44.8861H431.92V33.8581ZM434.44 36.1381H439.456V37.0141H434.44V36.1381ZM439.108 36.1381H439.972C439.972 36.1381 439.972 36.4741 439.972 36.5941C439.84 41.9581 439.732 43.7461 439.312 44.2861C439.072 44.6221 438.82 44.7181 438.436 44.7661C438.064 44.8021 437.416 44.7901 436.78 44.7541C436.756 44.5021 436.66 44.1301 436.504 43.8901C437.188 43.9381 437.824 43.9501 438.076 43.9501C438.292 43.9501 438.412 43.9141 438.532 43.7581C438.868 43.3741 438.988 41.5141 439.108 36.3541V36.1381ZM434.632 38.2501L435.436 38.4181C435.184 39.6781 434.716 40.9381 434.164 41.7781C434.02 41.6461 433.684 41.4181 433.48 41.2981C434.02 40.5301 434.404 39.4021 434.632 38.2501ZM440.056 38.4421L440.812 38.2861C441.16 39.3901 441.532 40.8301 441.652 41.6701L440.824 41.8741C440.728 41.0221 440.392 39.5581 440.056 38.4421ZM436.588 33.9781H437.44V36.1261C437.44 38.7901 437.188 42.2941 434.044 44.9221C433.9 44.7181 433.576 44.4421 433.36 44.3101C436.372 41.8381 436.588 38.5861 436.588 36.1261V33.9781ZM444.964 36.5941H451.072V37.3861H444.964V36.5941ZM445.576 38.6461H446.416V43.3381H445.576V38.6461ZM446.032 38.6461H450.424V42.4621H446.032V41.6821H449.584V39.4021H446.032V38.6461ZM443.044 34.4821H452.632V35.3461H443.92V44.9221H443.044V34.4821ZM452.08 34.4821H452.968V43.7581C452.968 44.3221 452.824 44.5981 452.452 44.7421C452.092 44.8981 451.492 44.9221 450.448 44.9101C450.412 44.6701 450.268 44.2741 450.124 44.0341C450.88 44.0581 451.588 44.0581 451.792 44.0461C452.008 44.0341 452.08 43.9621 452.08 43.7581V34.4821Z" fill="#CDBFE3"/>
<path d="M455 91.8045L455 92.8045L455.239 92.8045L455.452 92.6965L455 91.8045ZM528 54.8045L516.47 54.1756L521.69 64.4752L528 54.8045ZM255 91.8045L255 90.8045L254.747 90.8045L254.524 90.9249L255 91.8045ZM455.452 92.6965L520.424 59.7653L519.52 57.9814L454.548 90.9125L455.452 92.6965ZM157.476 145.684L255.476 92.6841L254.524 90.9249L156.524 143.925L157.476 145.684ZM255 92.8045L455 92.8045L455 90.8045L255 90.8045L255 92.8045Z" fill="url(#paint9_linear_62_98)"/>
<path d="M775.667 156C775.667 158.945 778.054 161.333 781 161.333C783.946 161.333 786.333 158.945 786.333 156C786.333 153.054 783.946 150.667 781 150.667C778.054 150.667 775.667 153.054 775.667 156ZM647 157H648.971V155H647V157ZM652.912 157H656.853V155H652.912V157ZM660.794 157H664.735V155H660.794V157ZM668.676 157H672.618V155H668.676V157ZM676.559 157H680.5V155H676.559V157ZM684.441 157H688.382V155H684.441V157ZM692.324 157H696.265V155H692.324V157ZM700.206 157H704.147V155H700.206V157ZM708.088 157H712.029V155H708.088V157ZM715.971 157H719.912V155H715.971V157ZM723.853 157H727.794V155H723.853V157ZM731.735 157H735.676V155H731.735V157ZM739.618 157H743.559V155H739.618V157ZM747.5 157H751.441V155H747.5V157ZM755.382 157H759.324V155H755.382V157ZM763.265 157H767.206V155H763.265V157ZM771.147 157H775.088V155H771.147V157ZM779.029 157H781V155H779.029V157ZM775.667 156C775.667 158.945 778.054 161.333 781 161.333C783.946 161.333 786.333 158.945 786.333 156C786.333 153.054 783.946 150.667 781 150.667C778.054 150.667 775.667 153.054 775.667 156ZM647 157H648.971V155H647V157ZM652.912 157H656.853V155H652.912V157ZM660.794 157H664.735V155H660.794V157ZM668.676 157H672.618V155H668.676V157ZM676.559 157H680.5V155H676.559V157ZM684.441 157H688.382V155H684.441V157ZM692.324 157H696.265V155H692.324V157ZM700.206 157H704.147V155H700.206V157ZM708.088 157H712.029V155H708.088V157ZM715.971 157H719.912V155H715.971V157ZM723.853 157H727.794V155H723.853V157ZM731.735 157H735.676V155H731.735V157ZM739.618 157H743.559V155H739.618V157ZM747.5 157H751.441V155H747.5V157ZM755.382 157H759.324V155H755.382V157ZM763.265 157H767.206V155H763.265V157ZM771.147 157H775.088V155H771.147V157ZM779.029 157H781V155H779.029V157Z" fill="url(#paint10_linear_62_98)"/>
<rect x="696.5" y="147.5" width="35" height="17" rx="8.5" fill="#FFF9EA" stroke="#DFCFA5"/>
<path d="M710.232 151.7H712.752V152.468H711.024V161.96H710.232V151.7ZM712.62 151.7H712.74L712.86 151.664L713.448 151.976C713.112 153.032 712.656 154.292 712.188 155.564C713.1 156.728 713.496 157.58 713.496 158.384C713.496 159.08 713.328 159.704 712.956 159.98C712.788 160.112 712.536 160.184 712.284 160.22C712.008 160.244 711.636 160.244 711.3 160.22C711.288 160.016 711.204 159.68 711.06 159.44C711.408 159.476 711.756 159.476 711.984 159.476C712.152 159.464 712.296 159.428 712.404 159.368C712.632 159.212 712.704 158.78 712.704 158.36C712.704 157.616 712.32 156.86 711.408 155.672C711.912 154.232 712.332 152.84 712.62 151.784V151.7ZM702.804 158.816C702.768 158.648 702.636 158.24 702.528 158.012C702.768 157.976 702.996 157.664 703.308 157.22C703.632 156.788 704.664 155.108 705.288 153.512L706.056 153.932C705.312 155.528 704.364 157.172 703.404 158.348V158.36C703.404 158.36 702.804 158.636 702.804 158.816ZM702.804 158.816L702.756 158.096L703.152 157.808L705.72 157.268C705.72 157.496 705.756 157.832 705.792 158.012C703.38 158.564 703.02 158.684 702.804 158.816ZM702.732 155.936C702.684 155.756 702.54 155.336 702.432 155.096C702.636 155.048 702.816 154.76 703.02 154.352C703.224 153.944 703.908 152.384 704.244 150.944L705.108 151.244C704.64 152.744 703.944 154.34 703.26 155.444V155.456C703.26 155.456 702.732 155.756 702.732 155.936ZM702.732 155.936L702.708 155.264L703.128 154.988L705.06 154.796C705.012 155.024 704.988 155.348 704.988 155.54C703.236 155.768 702.912 155.84 702.732 155.936ZM702.48 160.364C703.32 160.088 704.556 159.644 705.792 159.212L705.936 159.956C704.796 160.388 703.62 160.856 702.684 161.204L702.48 160.364ZM706.332 152.648H709.776V153.464H706.332V152.648ZM706.464 155.204H709.548V156.02H706.464V155.204ZM707.7 150.98H708.492V155.984C708.492 158.3 708.3 160.424 706.632 161.984C706.488 161.816 706.164 161.552 705.96 161.432C707.508 160.004 707.7 158.108 707.7 155.972V150.98ZM706.032 157.784H709.908V158.6H706.032V157.784ZM716.532 154.592H723.528V155.456H716.532V154.592ZM719.988 157.46H724.032V158.312H719.988V157.46ZM719.508 155.036H720.444V161.108L719.508 160.988V155.036ZM716.664 156.488L717.6 156.584C717.264 159.008 716.508 160.844 715.152 162.02C715.008 161.864 714.624 161.552 714.408 161.42C715.752 160.376 716.4 158.66 716.664 156.488ZM717.228 158.036C718.08 160.484 719.952 160.904 722.388 160.904C722.832 160.904 724.908 160.904 725.496 160.892C725.352 161.108 725.196 161.54 725.16 161.804H722.34C719.484 161.804 717.528 161.24 716.496 158.312L717.228 158.036ZM719.496 150.932H720.444V152.876H719.496V150.932ZM714.984 152.3H725.016V154.916H724.092V153.164H715.872V154.916H714.984V152.3Z" fill="#CFB573"/>
<path d="M1029.17 36C1029.17 38.9455 1031.55 41.3333 1034.5 41.3333C1037.45 41.3333 1039.83 38.9455 1039.83 36C1039.83 33.0545 1037.45 30.6667 1034.5 30.6667C1031.55 30.6667 1029.17 33.0545 1029.17 36ZM840.42 126.908L842.221 126.074L841.381 124.259L839.58 125.092L840.42 126.908ZM845.823 124.408L849.425 122.741L848.585 120.926L844.983 122.592L845.823 124.408ZM853.026 121.074L856.628 119.408L855.788 117.592L852.187 119.259L853.026 121.074ZM860.23 117.741L863.832 116.074L862.992 114.259L859.39 115.926L860.23 117.741ZM867.434 114.408L871.036 112.741L870.196 110.926L866.594 112.592L867.434 114.408ZM874.638 111.074L878.239 109.408L877.4 107.592L873.798 109.259L874.638 111.074ZM881.841 107.741L885.443 106.074L884.603 104.259L881.001 105.926L881.841 107.741ZM889.045 104.408L892.647 102.741L891.807 100.926L888.205 102.592L889.045 104.408ZM896.249 101.074L899.851 99.4075L899.011 97.5924L895.409 99.2591L896.249 101.074ZM903.452 97.7409L907.054 96.0742L906.214 94.2591L902.612 95.9258L903.452 97.7409ZM910.656 94.4076L914.258 92.7409L913.418 90.9258L909.816 92.5925L910.656 94.4076ZM917.86 91.0742L921.462 89.4076L920.622 87.5925L917.02 89.2591L917.86 91.0742ZM925.063 87.7409L928.665 86.0742L927.825 84.2591L924.224 85.9258L925.063 87.7409ZM932.267 84.4076L935.869 82.7409L935.029 80.9258L931.427 82.5925L932.267 84.4076ZM939.471 81.0742L943.073 79.4076L942.233 77.5925L938.631 79.2591L939.471 81.0742ZM946.675 77.7409L950.276 76.0742L949.437 74.2591L945.835 75.9258L946.675 77.7409ZM953.878 74.4076L957.48 72.7409L956.64 70.9258L953.038 72.5925L953.878 74.4076ZM961.082 71.0742L964.684 69.4076L963.844 67.5925L960.242 69.2591L961.082 71.0742ZM968.286 67.7409L971.888 66.0742L971.048 64.2591L967.446 65.9258L968.286 67.7409ZM975.489 64.4076L979.091 62.7409L978.251 60.9258L974.649 62.5925L975.489 64.4076ZM982.693 61.0742L986.295 59.4076L985.455 57.5925L981.853 59.2591L982.693 61.0742ZM989.897 57.7409L993.499 56.0742L992.659 54.2591L989.057 55.9258L989.897 57.7409ZM997.1 54.4076L1000.7 52.7409L999.862 50.9258L996.261 52.5925L997.1 54.4076ZM1004.3 51.0742L1007.91 49.4076L1007.07 47.5925L1003.46 49.2591L1004.3 51.0742ZM1011.51 47.7409L1015.11 46.0742L1014.27 44.2591L1010.67 45.9258L1011.51 47.7409ZM1018.71 44.4076L1022.31 42.7409L1021.47 40.9258L1017.87 42.5925L1018.71 44.4076ZM1025.92 41.0742L1029.52 39.4076L1028.68 37.5925L1025.08 39.2591L1025.92 41.0742ZM1033.12 37.7409L1034.92 36.9075L1034.08 35.0925L1032.28 35.9258L1033.12 37.7409ZM1029.17 36C1029.17 38.9455 1031.55 41.3333 1034.5 41.3333C1037.45 41.3333 1039.83 38.9455 1039.83 36C1039.83 33.0545 1037.45 30.6667 1034.5 30.6667C1031.55 30.6667 1029.17 33.0545 1029.17 36ZM840.42 126.908L842.221 126.074L841.381 124.259L839.58 125.092L840.42 126.908ZM845.823 124.408L849.425 122.741L848.585 120.926L844.983 122.592L845.823 124.408ZM853.026 121.074L856.628 119.408L855.788 117.592L852.187 119.259L853.026 121.074ZM860.23 117.741L863.832 116.074L862.992 114.259L859.39 115.926L860.23 117.741ZM867.434 114.408L871.036 112.741L870.196 110.926L866.594 112.592L867.434 114.408ZM874.638 111.074L878.239 109.408L877.4 107.592L873.798 109.259L874.638 111.074ZM881.841 107.741L885.443 106.074L884.603 104.259L881.001 105.926L881.841 107.741ZM889.045 104.408L892.647 102.741L891.807 100.926L888.205 102.592L889.045 104.408ZM896.249 101.074L899.851 99.4075L899.011 97.5924L895.409 99.2591L896.249 101.074ZM903.452 97.7409L907.054 96.0742L906.214 94.2591L902.612 95.9258L903.452 97.7409ZM910.656 94.4076L914.258 92.7409L913.418 90.9258L909.816 92.5925L910.656 94.4076ZM917.86 91.0742L921.462 89.4076L920.622 87.5925L917.02 89.2591L917.86 91.0742ZM925.063 87.7409L928.665 86.0742L927.825 84.2591L924.224 85.9258L925.063 87.7409ZM932.267 84.4076L935.869 82.7409L935.029 80.9258L931.427 82.5925L932.267 84.4076ZM939.471 81.0742L943.073 79.4076L942.233 77.5925L938.631 79.2591L939.471 81.0742ZM946.675 77.7409L950.276 76.0742L949.437 74.2591L945.835 75.9258L946.675 77.7409ZM953.878 74.4076L957.48 72.7409L956.64 70.9258L953.038 72.5925L953.878 74.4076ZM961.082 71.0742L964.684 69.4076L963.844 67.5925L960.242 69.2591L961.082 71.0742ZM968.286 67.7409L971.888 66.0742L971.048 64.2591L967.446 65.9258L968.286 67.7409ZM975.489 64.4076L979.091 62.7409L978.251 60.9258L974.649 62.5925L975.489 64.4076ZM982.693 61.0742L986.295 59.4076L985.455 57.5925L981.853 59.2591L982.693 61.0742ZM989.897 57.7409L993.499 56.0742L992.659 54.2591L989.057 55.9258L989.897 57.7409ZM997.1 54.4076L1000.7 52.7409L999.862 50.9258L996.261 52.5925L997.1 54.4076ZM1004.3 51.0742L1007.91 49.4076L1007.07 47.5925L1003.46 49.2591L1004.3 51.0742ZM1011.51 47.7409L1015.11 46.0742L1014.27 44.2591L1010.67 45.9258L1011.51 47.7409ZM1018.71 44.4076L1022.31 42.7409L1021.47 40.9258L1017.87 42.5925L1018.71 44.4076ZM1025.92 41.0742L1029.52 39.4076L1028.68 37.5925L1025.08 39.2591L1025.92 41.0742ZM1033.12 37.7409L1034.92 36.9075L1034.08 35.0925L1032.28 35.9258L1033.12 37.7409Z" fill="url(#paint11_linear_62_98)"/>
<rect x="917.648" y="77.9981" width="35" height="17" rx="8.5" transform="rotate(-20 917.648 77.9981)" fill="#FFF9EA" stroke="#DFCFA5"/>
<path d="M931.988 77.2481L934.356 76.3863L934.619 77.1079L932.995 77.699L936.242 86.6185L935.497 86.8894L931.988 77.2481ZM934.232 76.4314L934.345 76.3904L934.446 76.3155L935.105 76.4076C935.15 77.5148 935.153 78.8548 935.148 80.2101C936.403 80.992 937.067 81.6572 937.342 82.4127C937.58 83.0667 937.635 83.7106 937.38 84.0971C937.267 84.2786 937.055 84.4325 936.831 84.5525C936.579 84.6695 936.23 84.7967 935.906 84.8891C935.825 84.7015 935.631 84.4145 935.414 84.2382C935.753 84.153 936.08 84.034 936.294 83.956C936.448 83.8872 936.571 83.8042 936.652 83.7108C936.813 83.4863 936.733 83.0557 936.589 82.661C936.335 81.9619 935.715 81.3828 934.452 80.5784C934.433 79.0529 934.352 77.6012 934.261 76.5103L934.232 76.4314ZM927.442 86.4755C927.351 86.33 927.087 85.9917 926.908 85.8144C927.121 85.6985 927.229 85.3273 927.37 84.8034C927.527 84.2866 927.922 82.355 927.962 80.6418L928.828 80.7738C928.674 82.528 928.346 84.3971 927.846 85.8305L927.85 85.8418C927.85 85.8418 927.381 86.3064 927.442 86.4755ZM927.442 86.4755L927.151 85.8154L927.424 85.4093L929.653 84.0236C929.731 84.2378 929.88 84.5412 929.975 84.6981C927.897 86.0417 927.6 86.2776 927.442 86.4755ZM926.389 83.7938C926.283 83.6411 926.004 83.2957 925.82 83.1071C925.996 82.9922 926.066 82.66 926.118 82.2069C926.17 81.7537 926.28 80.0538 926.103 78.5858L927.017 78.5722C927.091 80.1418 926.982 81.8796 926.717 83.1509L926.721 83.1622C926.721 83.1622 926.328 83.6247 926.389 83.7938ZM926.389 83.7938L926.137 83.1706L926.437 82.7676L928.187 81.9264C928.22 82.157 928.308 82.4697 928.374 82.6501C926.806 83.4636 926.526 83.6421 926.389 83.7938ZM927.667 88.041C928.362 87.4943 929.372 86.6544 930.385 85.8257L930.775 86.4756C929.852 87.2714 928.907 88.1134 928.146 88.7606L927.667 88.041ZM928.648 79.4729L931.884 78.2949L932.163 79.0617L928.927 80.2396L928.648 79.4729ZM929.646 81.8296L932.544 80.7748L932.823 81.5416L929.925 82.5964L929.646 81.8296ZM929.363 77.4376L930.107 77.1667L931.818 81.8689C932.611 84.0452 933.157 86.1068 932.123 88.1432C931.93 88.0346 931.535 87.8973 931.303 87.8543C932.269 85.983 931.801 84.1357 931.07 82.1285L929.363 77.4376ZM930.122 84.4017L933.765 83.0761L934.044 83.8428L930.402 85.1685L930.122 84.4017ZM938.898 77.811L945.472 75.4182L945.767 76.2301L939.193 78.6229L938.898 77.811ZM943.126 79.324L946.926 77.9409L947.218 78.7415L943.417 80.1246L943.126 79.324ZM941.846 77.2104L942.725 76.8903L944.802 82.5961L943.882 82.8034L941.846 77.2104ZM939.67 79.5475L940.582 79.3176C941.096 81.7103 941.013 83.6942 940.141 85.263C939.953 85.1657 939.485 85.0038 939.237 84.9537C940.143 83.513 940.165 81.6788 939.67 79.5475ZM940.729 80.8093C942.367 82.8182 944.27 82.5726 946.559 81.7395C946.976 81.5876 948.927 80.8776 949.476 80.6652C949.414 80.9174 949.415 81.3767 949.472 81.6371L946.822 82.6016C944.138 83.5784 942.107 83.7174 940.136 81.319L940.729 80.8093ZM940.431 73.358L941.322 73.0338L941.987 74.8605L941.096 75.1848L940.431 73.358ZM936.659 76.1867L946.086 72.7555L946.981 75.2138L946.112 75.5298L945.513 73.8835L937.789 76.6949L938.388 78.3412L937.554 78.6449L936.659 76.1867Z" fill="#CFB573"/>
<path d="M1338.17 126.5C1338.17 129.446 1340.55 131.833 1343.5 131.833C1346.45 131.833 1348.83 129.446 1348.83 126.5C1348.83 123.554 1346.45 121.167 1343.5 121.167C1340.55 121.167 1338.17 123.554 1338.17 126.5ZM1155.08 39.9066L1156.89 40.748L1157.73 38.9347L1155.92 38.0934L1155.08 39.9066ZM1160.5 42.4307L1164.12 44.1133L1164.96 42.3001L1161.35 40.6174L1160.5 42.4307ZM1167.73 45.796L1171.35 47.4787L1172.19 45.6655L1168.58 43.9828L1167.73 45.796ZM1174.96 49.1614L1178.58 50.8441L1179.42 49.0309L1175.81 47.3482L1174.96 49.1614ZM1182.19 52.5268L1185.81 54.2095L1186.65 52.3963L1183.04 50.7136L1182.19 52.5268ZM1189.42 55.8922L1193.04 57.5749L1193.88 55.7617L1190.27 54.079L1189.42 55.8922ZM1196.65 59.2576L1200.27 60.9403L1201.11 59.127L1197.5 57.4443L1196.65 59.2576ZM1203.89 62.623L1207.5 64.3057L1208.35 62.4924L1204.73 60.8097L1203.89 62.623ZM1211.12 65.9883L1214.73 67.671L1215.58 65.8578L1211.96 64.1751L1211.12 65.9883ZM1218.35 69.3537L1221.96 71.0364L1222.81 69.2232L1219.19 67.5405L1218.35 69.3537ZM1225.58 72.7191L1229.19 74.4018L1230.04 72.5886L1226.42 70.9059L1225.58 72.7191ZM1232.81 76.0845L1236.42 77.7672L1237.27 75.954L1233.65 74.2713L1232.81 76.0845ZM1240.04 79.4499L1243.65 81.1326L1244.5 79.3193L1240.88 77.6366L1240.04 79.4499ZM1247.27 82.8153L1250.89 84.4979L1251.73 82.6847L1248.11 81.002L1247.27 82.8153ZM1254.5 86.1806L1258.12 87.8633L1258.96 86.0501L1255.35 84.3674L1254.5 86.1806ZM1261.73 89.546L1265.35 91.2287L1266.19 89.4155L1262.58 87.7328L1261.73 89.546ZM1268.96 92.9114L1272.58 94.5941L1273.42 92.7809L1269.81 91.0982L1268.96 92.9114ZM1276.19 96.2768L1279.81 97.9595L1280.65 96.1463L1277.04 94.4636L1276.19 96.2768ZM1283.42 99.6422L1287.04 101.325L1287.88 99.5116L1284.27 97.8289L1283.42 99.6422ZM1290.65 103.008L1294.27 104.69L1295.11 102.877L1291.5 101.194L1290.65 103.008ZM1297.89 106.373L1301.5 108.056L1302.35 106.242L1298.73 104.56L1297.89 106.373ZM1305.12 109.738L1308.73 111.421L1309.58 109.608L1305.96 107.925L1305.12 109.738ZM1312.35 113.104L1315.96 114.786L1316.81 112.973L1313.19 111.29L1312.35 113.104ZM1319.58 116.469L1323.19 118.152L1324.04 116.339L1320.42 114.656L1319.58 116.469ZM1326.81 119.835L1330.42 121.517L1331.27 119.704L1327.65 118.021L1326.81 119.835ZM1334.04 123.2L1337.65 124.883L1338.5 123.069L1334.88 121.387L1334.04 123.2ZM1341.27 126.565L1343.08 127.407L1343.92 125.593L1342.11 124.752L1341.27 126.565ZM1338.17 126.5C1338.17 129.446 1340.55 131.833 1343.5 131.833C1346.45 131.833 1348.83 129.446 1348.83 126.5C1348.83 123.554 1346.45 121.167 1343.5 121.167C1340.55 121.167 1338.17 123.554 1338.17 126.5ZM1155.08 39.9066L1156.89 40.748L1157.73 38.9347L1155.92 38.0934L1155.08 39.9066ZM1160.5 42.4307L1164.12 44.1133L1164.96 42.3001L1161.35 40.6174L1160.5 42.4307ZM1167.73 45.796L1171.35 47.4787L1172.19 45.6655L1168.58 43.9828L1167.73 45.796ZM1174.96 49.1614L1178.58 50.8441L1179.42 49.0309L1175.81 47.3482L1174.96 49.1614ZM1182.19 52.5268L1185.81 54.2095L1186.65 52.3963L1183.04 50.7136L1182.19 52.5268ZM1189.42 55.8922L1193.04 57.5749L1193.88 55.7617L1190.27 54.079L1189.42 55.8922ZM1196.65 59.2576L1200.27 60.9403L1201.11 59.127L1197.5 57.4443L1196.65 59.2576ZM1203.89 62.623L1207.5 64.3057L1208.35 62.4924L1204.73 60.8097L1203.89 62.623ZM1211.12 65.9883L1214.73 67.671L1215.58 65.8578L1211.96 64.1751L1211.12 65.9883ZM1218.35 69.3537L1221.96 71.0364L1222.81 69.2232L1219.19 67.5405L1218.35 69.3537ZM1225.58 72.7191L1229.19 74.4018L1230.04 72.5886L1226.42 70.9059L1225.58 72.7191ZM1232.81 76.0845L1236.42 77.7672L1237.27 75.954L1233.65 74.2713L1232.81 76.0845ZM1240.04 79.4499L1243.65 81.1326L1244.5 79.3193L1240.88 77.6366L1240.04 79.4499ZM1247.27 82.8153L1250.89 84.4979L1251.73 82.6847L1248.11 81.002L1247.27 82.8153ZM1254.5 86.1806L1258.12 87.8633L1258.96 86.0501L1255.35 84.3674L1254.5 86.1806ZM1261.73 89.546L1265.35 91.2287L1266.19 89.4155L1262.58 87.7328L1261.73 89.546ZM1268.96 92.9114L1272.58 94.5941L1273.42 92.7809L1269.81 91.0982L1268.96 92.9114ZM1276.19 96.2768L1279.81 97.9595L1280.65 96.1463L1277.04 94.4636L1276.19 96.2768ZM1283.42 99.6422L1287.04 101.325L1287.88 99.5116L1284.27 97.8289L1283.42 99.6422ZM1290.65 103.008L1294.27 104.69L1295.11 102.877L1291.5 101.194L1290.65 103.008ZM1297.89 106.373L1301.5 108.056L1302.35 106.242L1298.73 104.56L1297.89 106.373ZM1305.12 109.738L1308.73 111.421L1309.58 109.608L1305.96 107.925L1305.12 109.738ZM1312.35 113.104L1315.96 114.786L1316.81 112.973L1313.19 111.29L1312.35 113.104ZM1319.58 116.469L1323.19 118.152L1324.04 116.339L1320.42 114.656L1319.58 116.469ZM1326.81 119.835L1330.42 121.517L1331.27 119.704L1327.65 118.021L1326.81 119.835ZM1334.04 123.2L1337.65 124.883L1338.5 123.069L1334.88 121.387L1334.04 123.2ZM1341.27 126.565L1343.08 127.407L1343.92 125.593L1342.11 124.752L1341.27 126.565Z" fill="url(#paint12_linear_62_98)"/>
<rect x="1239.46" y="69.0273" width="35" height="17" rx="8.5" transform="rotate(20 1239.46 69.0273)" fill="#FFF9EA" stroke="#DFCFA5"/>
<path d="M1250.93 77.6706L1253.3 78.5325L1253.04 79.2542L1251.41 78.6632L1248.17 87.5827L1247.42 87.3119L1250.93 77.6706ZM1253.17 78.4874L1253.29 78.5284L1253.41 78.5356L1253.86 79.0299C1253.18 79.9073 1252.32 80.9354 1251.45 81.9706C1251.91 83.3763 1251.99 84.3124 1251.71 85.0679C1251.47 85.7219 1251.1 86.2508 1250.66 86.3829C1250.45 86.4495 1250.19 86.431 1249.94 86.3786C1249.68 86.3068 1249.33 86.1795 1249.02 86.0421C1249.08 85.8463 1249.11 85.5018 1249.06 85.227C1249.38 85.3799 1249.7 85.4989 1249.92 85.5769C1250.08 85.6231 1250.23 85.6385 1250.35 85.619C1250.62 85.5504 1250.83 85.1691 1250.97 84.7744C1251.23 84.0753 1251.13 83.2336 1250.68 81.8053C1251.64 80.6245 1252.51 79.4601 1253.15 78.5663L1253.17 78.4874ZM1241.52 81.8169C1241.54 81.6468 1241.56 81.2182 1241.53 80.967C1241.77 81.0153 1242.09 80.8001 1242.54 80.4896C1242.99 80.1944 1244.53 78.9687 1245.66 77.6824L1246.24 78.3397C1245 79.585 1243.54 80.8056 1242.24 81.5824L1242.24 81.5937C1242.24 81.5937 1241.58 81.6478 1241.52 81.8169ZM1241.52 81.8169L1241.72 81.1239L1242.19 80.9888L1244.79 81.3596C1244.71 81.5739 1244.63 81.9019 1244.6 82.0834C1242.14 81.7771 1241.76 81.7668 1241.52 81.8169ZM1242.43 79.086C1242.45 78.9004 1242.46 78.4565 1242.44 78.1941C1242.65 78.2187 1242.91 78.0096 1243.25 77.696C1243.58 77.3824 1244.75 76.1504 1245.56 74.9122L1246.27 75.4896C1245.32 76.7391 1244.12 78.0008 1243.1 78.8043L1243.09 78.8155C1243.09 78.8155 1242.49 78.9169 1242.43 79.086ZM1242.43 79.086L1242.64 78.4463L1243.13 78.3306L1245.01 78.811C1244.89 79.0088 1244.75 79.3051 1244.69 79.4855C1242.96 79.1005 1242.64 79.0574 1242.43 79.086ZM1240.68 83.1608C1241.57 83.1887 1242.88 83.1942 1244.19 83.211L1244.07 83.9594C1242.85 83.9754 1241.59 84.013 1240.59 84.0199L1240.68 83.1608ZM1246.94 77.2276L1250.18 78.4055L1249.9 79.1723L1246.66 77.9944L1246.94 77.2276ZM1246.19 79.6746L1249.09 80.7294L1248.81 81.4961L1245.91 80.4414L1246.19 79.6746ZM1248.8 76.128L1249.54 76.3989L1247.83 81.1011C1247.04 83.2775 1246.13 85.2077 1244.03 86.1031C1243.95 85.896 1243.74 85.5371 1243.59 85.3546C1245.53 84.5422 1246.36 82.8262 1247.09 80.819L1248.8 76.128ZM1244.9 81.9512L1248.54 83.2769L1248.27 84.0437L1244.62 82.718L1244.9 81.9512ZM1255.86 82.5429L1262.43 84.9357L1262.14 85.7476L1255.57 83.3548L1255.86 82.5429ZM1258.13 86.42L1261.93 87.8031L1261.64 88.6037L1257.84 87.2206L1258.13 86.42ZM1258.51 83.978L1259.39 84.2981L1257.31 90.0039L1256.47 89.5711L1258.51 83.978ZM1255.34 84.3697L1256.18 84.7801C1255.04 86.943 1253.7 88.4097 1252.02 89.051C1251.94 88.8551 1251.69 88.4306 1251.53 88.2327C1253.15 87.7113 1254.35 86.3205 1255.34 84.3697ZM1255.34 86.0173C1255.3 88.609 1256.92 89.644 1259.2 90.4771C1259.62 90.629 1261.57 91.339 1262.13 91.5289C1261.92 91.6826 1261.63 92.0352 1261.5 92.2709L1258.85 91.3064C1256.17 90.3296 1254.52 89.1307 1254.55 86.0263L1255.34 86.0173ZM1259.9 80.1174L1260.79 80.4416L1260.12 82.2684L1259.23 81.9442L1259.9 80.1174ZM1255.19 79.8597L1264.62 83.2909L1263.72 85.7491L1262.85 85.4331L1263.45 83.7867L1255.73 80.9753L1255.13 82.6217L1254.3 82.3179L1255.19 79.8597Z" fill="#CFB573"/>
<path d="M1029.67 158C1029.67 160.945 1032.05 163.333 1035 163.333C1037.95 163.333 1040.33 160.945 1040.33 158C1040.33 155.054 1037.95 152.667 1035 152.667C1032.05 152.667 1029.67 155.054 1029.67 158ZM901 159H902.971V157H901V159ZM906.912 159H910.853V157H906.912V159ZM914.794 159H918.735V157H914.794V159ZM922.676 159H926.618V157H922.676V159ZM930.559 159H934.5V157H930.559V159ZM938.441 159H942.382V157H938.441V159ZM946.324 159H950.265V157H946.324V159ZM954.206 159H958.147V157H954.206V159ZM962.088 159H966.029V157H962.088V159ZM969.971 159H973.912V157H969.971V159ZM977.853 159H981.794V157H977.853V159ZM985.735 159H989.676V157H985.735V159ZM993.618 159H997.559V157H993.618V159ZM1001.5 159H1005.44V157H1001.5V159ZM1009.38 159H1013.32V157H1009.38V159ZM1017.26 159H1021.21V157H1017.26V159ZM1025.15 159H1029.09V157H1025.15V159ZM1033.03 159H1035V157H1033.03V159ZM1029.67 158C1029.67 160.945 1032.05 163.333 1035 163.333C1037.95 163.333 1040.33 160.945 1040.33 158C1040.33 155.054 1037.95 152.667 1035 152.667C1032.05 152.667 1029.67 155.054 1029.67 158ZM901 159H902.971V157H901V159ZM906.912 159H910.853V157H906.912V159ZM914.794 159H918.735V157H914.794V159ZM922.676 159H926.618V157H922.676V159ZM930.559 159H934.5V157H930.559V159ZM938.441 159H942.382V157H938.441V159ZM946.324 159H950.265V157H946.324V159ZM954.206 159H958.147V157H954.206V159ZM962.088 159H966.029V157H962.088V159ZM969.971 159H973.912V157H969.971V159ZM977.853 159H981.794V157H977.853V159ZM985.735 159H989.676V157H985.735V159ZM993.618 159H997.559V157H993.618V159ZM1001.5 159H1005.44V157H1001.5V159ZM1009.38 159H1013.32V157H1009.38V159ZM1017.26 159H1021.21V157H1017.26V159ZM1025.15 159H1029.09V157H1025.15V159ZM1033.03 159H1035V157H1033.03V159Z" fill="url(#paint13_linear_62_98)"/>
<rect x="950.5" y="149.5" width="35" height="17" rx="8.5" fill="#FFF9EA" stroke="#DFCFA5"/>
<path d="M964.232 153.7H966.752V154.468H965.024V163.96H964.232V153.7ZM966.62 153.7H966.74L966.86 153.664L967.448 153.976C967.112 155.032 966.656 156.292 966.188 157.564C967.1 158.728 967.496 159.58 967.496 160.384C967.496 161.08 967.328 161.704 966.956 161.98C966.788 162.112 966.536 162.184 966.284 162.22C966.008 162.244 965.636 162.244 965.3 162.22C965.288 162.016 965.204 161.68 965.06 161.44C965.408 161.476 965.756 161.476 965.984 161.476C966.152 161.464 966.296 161.428 966.404 161.368C966.632 161.212 966.704 160.78 966.704 160.36C966.704 159.616 966.32 158.86 965.408 157.672C965.912 156.232 966.332 154.84 966.62 153.784V153.7ZM956.804 160.816C956.768 160.648 956.636 160.24 956.528 160.012C956.768 159.976 956.996 159.664 957.308 159.22C957.632 158.788 958.664 157.108 959.288 155.512L960.056 155.932C959.312 157.528 958.364 159.172 957.404 160.348V160.36C957.404 160.36 956.804 160.636 956.804 160.816ZM956.804 160.816L956.756 160.096L957.152 159.808L959.72 159.268C959.72 159.496 959.756 159.832 959.792 160.012C957.38 160.564 957.02 160.684 956.804 160.816ZM956.732 157.936C956.684 157.756 956.54 157.336 956.432 157.096C956.636 157.048 956.816 156.76 957.02 156.352C957.224 155.944 957.908 154.384 958.244 152.944L959.108 153.244C958.64 154.744 957.944 156.34 957.26 157.444V157.456C957.26 157.456 956.732 157.756 956.732 157.936ZM956.732 157.936L956.708 157.264L957.128 156.988L959.06 156.796C959.012 157.024 958.988 157.348 958.988 157.54C957.236 157.768 956.912 157.84 956.732 157.936ZM956.48 162.364C957.32 162.088 958.556 161.644 959.792 161.212L959.936 161.956C958.796 162.388 957.62 162.856 956.684 163.204L956.48 162.364ZM960.332 154.648H963.776V155.464H960.332V154.648ZM960.464 157.204H963.548V158.02H960.464V157.204ZM961.7 152.98H962.492V157.984C962.492 160.3 962.3 162.424 960.632 163.984C960.488 163.816 960.164 163.552 959.96 163.432C961.508 162.004 961.7 160.108 961.7 157.972V152.98ZM960.032 159.784H963.908V160.6H960.032V159.784ZM970.532 156.592H977.528V157.456H970.532V156.592ZM973.988 159.46H978.032V160.312H973.988V159.46ZM973.508 157.036H974.444V163.108L973.508 162.988V157.036ZM970.664 158.488L971.6 158.584C971.264 161.008 970.508 162.844 969.152 164.02C969.008 163.864 968.624 163.552 968.408 163.42C969.752 162.376 970.4 160.66 970.664 158.488ZM971.228 160.036C972.08 162.484 973.952 162.904 976.388 162.904C976.832 162.904 978.908 162.904 979.496 162.892C979.352 163.108 979.196 163.54 979.16 163.804H976.34C973.484 163.804 971.528 163.24 970.496 160.312L971.228 160.036ZM973.496 152.932H974.444V154.876H973.496V152.932ZM968.984 154.3H979.016V156.916H978.092V155.164H969.872V156.916H968.984V154.3Z" fill="#CFB573"/>
<path d="M1277.67 156C1277.67 158.945 1280.05 161.333 1283 161.333C1285.95 161.333 1288.33 158.945 1288.33 156C1288.33 153.054 1285.95 150.667 1283 150.667C1280.05 150.667 1277.67 153.054 1277.67 156ZM1155 157H1157V155H1155V157ZM1161 157H1165V155H1161V157ZM1169 157H1173V155H1169V157ZM1177 157H1181V155H1177V157ZM1185 157H1189V155H1185V157ZM1193 157H1197V155H1193V157ZM1201 157H1205V155H1201V157ZM1209 157H1213V155H1209V157ZM1217 157H1221V155H1217V157ZM1225 157H1229V155H1225V157ZM1233 157H1237V155H1233V157ZM1241 157H1245V155H1241V157ZM1249 157H1253V155H1249V157ZM1257 157H1261V155H1257V157ZM1265 157H1269V155H1265V157ZM1273 157H1277V155H1273V157ZM1281 157H1283V155H1281V157ZM1277.67 156C1277.67 158.945 1280.05 161.333 1283 161.333C1285.95 161.333 1288.33 158.945 1288.33 156C1288.33 153.054 1285.95 150.667 1283 150.667C1280.05 150.667 1277.67 153.054 1277.67 156ZM1155 157H1157V155H1155V157ZM1161 157H1165V155H1161V157ZM1169 157H1173V155H1169V157ZM1177 157H1181V155H1177V157ZM1185 157H1189V155H1185V157ZM1193 157H1197V155H1193V157ZM1201 157H1205V155H1201V157ZM1209 157H1213V155H1209V157ZM1217 157H1221V155H1217V157ZM1225 157H1229V155H1225V157ZM1233 157H1237V155H1233V157ZM1241 157H1245V155H1241V157ZM1249 157H1253V155H1249V157ZM1257 157H1261V155H1257V157ZM1265 157H1269V155H1265V157ZM1273 157H1277V155H1273V157ZM1281 157H1283V155H1281V157Z" fill="url(#paint14_linear_62_98)"/>
<rect x="1191.5" y="147.5" width="35" height="17" rx="8.5" fill="#FFF9EA" stroke="#DFCFA5"/>
<path d="M1205.23 151.7H1207.75V152.468H1206.02V161.96H1205.23V151.7ZM1207.62 151.7H1207.74L1207.86 151.664L1208.45 151.976C1208.11 153.032 1207.66 154.292 1207.19 155.564C1208.1 156.728 1208.5 157.58 1208.5 158.384C1208.5 159.08 1208.33 159.704 1207.96 159.98C1207.79 160.112 1207.54 160.184 1207.28 160.22C1207.01 160.244 1206.64 160.244 1206.3 160.22C1206.29 160.016 1206.2 159.68 1206.06 159.44C1206.41 159.476 1206.76 159.476 1206.98 159.476C1207.15 159.464 1207.3 159.428 1207.4 159.368C1207.63 159.212 1207.7 158.78 1207.7 158.36C1207.7 157.616 1207.32 156.86 1206.41 155.672C1206.91 154.232 1207.33 152.84 1207.62 151.784V151.7ZM1197.8 158.816C1197.77 158.648 1197.64 158.24 1197.53 158.012C1197.77 157.976 1198 157.664 1198.31 157.22C1198.63 156.788 1199.66 155.108 1200.29 153.512L1201.06 153.932C1200.31 155.528 1199.36 157.172 1198.4 158.348V158.36C1198.4 158.36 1197.8 158.636 1197.8 158.816ZM1197.8 158.816L1197.76 158.096L1198.15 157.808L1200.72 157.268C1200.72 157.496 1200.76 157.832 1200.79 158.012C1198.38 158.564 1198.02 158.684 1197.8 158.816ZM1197.73 155.936C1197.68 155.756 1197.54 155.336 1197.43 155.096C1197.64 155.048 1197.82 154.76 1198.02 154.352C1198.22 153.944 1198.91 152.384 1199.24 150.944L1200.11 151.244C1199.64 152.744 1198.94 154.34 1198.26 155.444V155.456C1198.26 155.456 1197.73 155.756 1197.73 155.936ZM1197.73 155.936L1197.71 155.264L1198.13 154.988L1200.06 154.796C1200.01 155.024 1199.99 155.348 1199.99 155.54C1198.24 155.768 1197.91 155.84 1197.73 155.936ZM1197.48 160.364C1198.32 160.088 1199.56 159.644 1200.79 159.212L1200.94 159.956C1199.8 160.388 1198.62 160.856 1197.68 161.204L1197.48 160.364ZM1201.33 152.648H1204.78V153.464H1201.33V152.648ZM1201.46 155.204H1204.55V156.02H1201.46V155.204ZM1202.7 150.98H1203.49V155.984C1203.49 158.3 1203.3 160.424 1201.63 161.984C1201.49 161.816 1201.16 161.552 1200.96 161.432C1202.51 160.004 1202.7 158.108 1202.7 155.972V150.98ZM1201.03 157.784H1204.91V158.6H1201.03V157.784ZM1211.53 154.592H1218.53V155.456H1211.53V154.592ZM1214.99 157.46H1219.03V158.312H1214.99V157.46ZM1214.51 155.036H1215.44V161.108L1214.51 160.988V155.036ZM1211.66 156.488L1212.6 156.584C1212.26 159.008 1211.51 160.844 1210.15 162.02C1210.01 161.864 1209.62 161.552 1209.41 161.42C1210.75 160.376 1211.4 158.66 1211.66 156.488ZM1212.23 158.036C1213.08 160.484 1214.95 160.904 1217.39 160.904C1217.83 160.904 1219.91 160.904 1220.5 160.892C1220.35 161.108 1220.2 161.54 1220.16 161.804H1217.34C1214.48 161.804 1212.53 161.24 1211.5 158.312L1212.23 158.036ZM1214.5 150.932H1215.44V152.876H1214.5V150.932ZM1209.98 152.3H1220.02V154.916H1219.09V153.164H1210.87V154.916H1209.98V152.3Z" fill="#CFB573"/>
<path d="M48.952 152.13C48.9283 151.927 48.8305 151.741 48.6775 151.606C48.5245 151.471 48.3271 151.398 48.1232 151.4C48.0452 151.4 47.9696 151.373 47.9082 151.325C47.8468 151.277 47.8031 151.21 47.784 151.134C47.6274 150.576 47.4028 150.038 47.1152 149.534C47.0753 149.467 47.059 149.388 47.0688 149.311C47.0787 149.233 47.1141 149.161 47.1696 149.106C47.326 148.947 47.4143 148.733 47.416 148.51C47.4169 148.327 47.3548 148.148 47.24 148.005C47.0768 147.803 46.92 147.611 46.7248 147.426L46.5872 147.288C46.4016 147.106 46.2096 146.936 46.008 146.773C45.8478 146.647 45.6472 146.585 45.4442 146.598C45.2412 146.611 45.0501 146.698 44.9072 146.843C44.8419 146.909 44.7533 146.945 44.6608 146.946C44.5969 146.946 44.5341 146.929 44.4784 146.898C43.9745 146.61 43.4371 146.385 42.8784 146.229C42.7983 146.212 42.7266 146.167 42.6758 146.103C42.625 146.039 42.5982 145.959 42.6 145.877C42.6004 145.672 42.5265 145.474 42.392 145.32C42.2584 145.167 42.0722 145.07 41.8704 145.048C41.2919 144.984 40.7081 144.984 40.1296 145.048C39.9271 145.072 39.7406 145.169 39.6059 145.322C39.4712 145.475 39.3978 145.673 39.4 145.877C39.3995 145.955 39.3732 146.03 39.3252 146.092C39.2771 146.153 39.21 146.197 39.1344 146.216C38.5757 146.373 38.0383 146.597 37.5344 146.885C37.467 146.925 37.3883 146.941 37.3107 146.931C37.233 146.921 37.1608 146.886 37.1056 146.83C37.0247 146.753 36.9292 146.693 36.8248 146.654C36.7204 146.614 36.6092 146.596 36.4976 146.6C36.3141 146.6 36.1359 146.662 35.992 146.776C35.7904 146.939 35.5984 147.096 35.4128 147.291L35.2752 147.429C35.0928 147.598 34.92 147.79 34.76 147.992C34.6353 148.152 34.5736 148.353 34.5866 148.556C34.5995 148.759 34.6863 148.95 34.8304 149.093C34.8958 149.158 34.9327 149.247 34.9328 149.339C34.9328 149.403 34.9162 149.466 34.8848 149.522C34.5972 150.026 34.3726 150.563 34.216 151.122C34.1993 151.2 34.1567 151.27 34.0951 151.32C34.0335 151.371 33.9565 151.399 33.8768 151.4C33.6721 151.4 33.4743 151.474 33.32 151.608C33.1671 151.742 33.0701 151.928 33.048 152.13C32.984 152.708 32.984 153.292 33.048 153.87C33.0717 154.073 33.1695 154.259 33.3225 154.394C33.4755 154.529 33.6729 154.602 33.8768 154.6C33.9548 154.6 34.0304 154.627 34.0918 154.675C34.1532 154.723 34.1969 154.79 34.216 154.866C34.3726 155.424 34.5972 155.962 34.8848 156.466C34.9247 156.533 34.941 156.612 34.9312 156.689C34.9213 156.767 34.8859 156.839 34.8304 156.894C34.7534 156.975 34.6934 157.071 34.6539 157.175C34.6143 157.28 34.596 157.391 34.6 157.502C34.6001 157.686 34.6621 157.864 34.776 158.008C34.9392 158.21 35.096 158.402 35.2912 158.587L35.4288 158.725C35.6144 158.907 35.8064 159.077 36.008 159.24C36.1684 159.365 36.3689 159.426 36.5717 159.413C36.7745 159.4 36.9656 159.314 37.1088 159.17C37.1741 159.104 37.2627 159.067 37.3552 159.067C37.4191 159.067 37.4819 159.084 37.5376 159.115C38.0415 159.403 38.5789 159.627 39.1376 159.784C39.2126 159.804 39.279 159.848 39.3264 159.909C39.3739 159.97 39.3997 160.046 39.4 160.123C39.3996 160.328 39.4735 160.526 39.608 160.68C39.7416 160.833 39.9278 160.93 40.1296 160.952C40.7081 161.016 41.2919 161.016 41.8704 160.952C42.0729 160.928 42.2594 160.831 42.3941 160.678C42.5288 160.525 42.6022 160.327 42.6 160.123C42.6005 160.045 42.6268 159.97 42.6748 159.908C42.7229 159.847 42.79 159.803 42.8656 159.784C43.4243 159.627 43.9617 159.403 44.4656 159.115C44.533 159.075 44.6117 159.059 44.6893 159.069C44.767 159.079 44.8392 159.114 44.8944 159.17C45.0532 159.326 45.2667 159.414 45.4896 159.416C45.6733 159.417 45.8518 159.355 45.9952 159.24C46.1968 159.077 46.3888 158.92 46.5744 158.725L46.712 158.587C46.8944 158.402 47.064 158.21 47.2272 158.008C47.3526 157.848 47.4147 157.647 47.4017 157.444C47.3887 157.241 47.3016 157.05 47.1568 156.907C47.0914 156.842 47.0545 156.753 47.0544 156.661C47.0544 156.597 47.071 156.534 47.1024 156.478C47.39 155.974 47.6146 155.437 47.7712 154.878C47.7883 154.798 47.8328 154.727 47.8971 154.676C47.9613 154.625 48.0413 154.598 48.1232 154.6C48.3279 154.6 48.5257 154.526 48.68 154.392C48.8329 154.258 48.9299 154.072 48.952 153.87C49.016 153.292 49.016 152.708 48.952 152.13ZM41 158.76C39.8608 158.76 38.7471 158.422 37.7999 157.789C36.8527 157.156 36.1144 156.257 35.6784 155.204C35.2425 154.152 35.1284 152.994 35.3507 151.876C35.5729 150.759 36.1215 149.733 36.9271 148.927C37.7326 148.122 38.7589 147.573 39.8763 147.351C40.9936 147.128 42.1518 147.242 43.2043 147.678C44.2568 148.114 45.1564 148.853 45.7893 149.8C46.4222 150.747 46.76 151.861 46.76 153C46.76 154.528 46.1531 155.993 45.0729 157.073C43.9927 158.153 42.5276 158.76 41 158.76Z" fill="#057C49"/>
<path d="M41 150.44C41.5063 150.44 42.0013 150.59 42.4223 150.871C42.8433 151.153 43.1714 151.553 43.3651 152.02C43.5589 152.488 43.6096 153.003 43.5108 153.499C43.412 153.996 43.1682 154.452 42.8102 154.81C42.4522 155.168 41.996 155.412 41.4994 155.511C41.0028 155.61 40.4881 155.559 40.0203 155.365C39.5526 155.171 39.1527 154.843 38.8714 154.422C38.5901 154.001 38.44 153.506 38.44 153C38.44 152.321 38.7097 151.67 39.1898 151.19C39.6699 150.71 40.321 150.44 41 150.44ZM41 148.84C40.1772 148.84 39.3729 149.084 38.6888 149.541C38.0047 149.998 37.4715 150.648 37.1567 151.408C36.8418 152.168 36.7594 153.005 36.9199 153.812C37.0804 154.619 37.4766 155.36 38.0584 155.942C38.6402 156.523 39.3815 156.92 40.1884 157.08C40.9954 157.241 41.8318 157.158 42.592 156.843C43.3521 156.528 44.0018 155.995 44.4589 155.311C44.916 154.627 45.16 153.823 45.16 153C45.16 151.897 44.7217 150.839 43.9416 150.058C43.1614 149.278 42.1033 148.84 41 148.84Z" fill="#00C569"/>
</g>
<defs>
<linearGradient id="paint0_linear_62_98" x1="154.105" y1="129.57" x2="286.827" y2="54.4639" gradientUnits="userSpaceOnUse">
<stop stop-color="#7FCDAC"/>
<stop offset="1" stop-color="#96C9FF"/>
</linearGradient>
<linearGradient id="paint1_linear_62_98" x1="218" y1="152.804" x2="334" y2="152.804" gradientUnits="userSpaceOnUse">
<stop stop-color="#B3FEDE"/>
<stop offset="1" stop-color="#96C9FF"/>
</linearGradient>
<linearGradient id="paint2_linear_62_98" x1="416" y1="155.5" x2="526.5" y2="155.5" gradientUnits="userSpaceOnUse">
<stop stop-color="#7FCDAC"/>
<stop offset="1" stop-color="#96C9FF"/>
</linearGradient>
<linearGradient id="paint3_linear_62_98" x1="689.043" y1="128.141" x2="803.957" y2="103.735" gradientUnits="userSpaceOnUse">
<stop stop-color="#96C9FF"/>
<stop offset="0.575" stop-color="#CDBFE3"/>
<stop offset="1" stop-color="#96C9FF"/>
</linearGradient>
<linearGradient id="paint4_linear_62_98" x1="416.16" y1="151.278" x2="750.16" y2="38.2782" gradientUnits="userSpaceOnUse">
<stop stop-color="#7FCDAC"/>
<stop offset="1" stop-color="#96C9FF"/>
</linearGradient>
<linearGradient id="paint5_linear_62_98" x1="414.352" y1="174.218" x2="839.352" y2="207.218" gradientUnits="userSpaceOnUse">
<stop stop-color="#7FCDAC"/>
<stop offset="1" stop-color="#96C9FF"/>
</linearGradient>
<linearGradient id="paint6_linear_62_98" x1="414.383" y1="185.29" x2="1093.38" y2="219.29" gradientUnits="userSpaceOnUse">
<stop stop-color="#7FCDAC"/>
<stop offset="1" stop-color="#96C9FF"/>
</linearGradient>
<linearGradient id="paint7_linear_62_98" x1="412.436" y1="195.785" x2="1342.44" y2="229.785" gradientUnits="userSpaceOnUse">
<stop stop-color="#7FCDAC"/>
<stop offset="1" stop-color="#96C9FF"/>
</linearGradient>
<linearGradient id="paint8_linear_62_98" x1="411.043" y1="63.1415" x2="525.957" y2="38.7351" gradientUnits="userSpaceOnUse">
<stop stop-color="#96C9FF"/>
<stop offset="0.575" stop-color="#CDBFE3"/>
<stop offset="1" stop-color="#96C9FF"/>
</linearGradient>
<linearGradient id="paint9_linear_62_98" x1="156.094" y1="140.296" x2="556.094" y2="63.2957" gradientUnits="userSpaceOnUse">
<stop stop-color="#7FCDAC"/>
<stop offset="1" stop-color="#96C9FF"/>
</linearGradient>
<linearGradient id="paint10_linear_62_98" x1="647" y1="156.5" x2="781" y2="156.5" gradientUnits="userSpaceOnUse">
<stop stop-color="#CFB573"/>
<stop offset="1" stop-color="#96C9FF"/>
</linearGradient>
<linearGradient id="paint11_linear_62_98" x1="1035" y1="31" x2="840" y2="126" gradientUnits="userSpaceOnUse">
<stop stop-color="#96C9FF"/>
<stop offset="1" stop-color="#CFB573"/>
</linearGradient>
<linearGradient id="paint12_linear_62_98" x1="1249.5" y1="39" x2="1249.5" y2="126.5" gradientUnits="userSpaceOnUse">
<stop stop-color="#CFB573"/>
<stop offset="1" stop-color="#96C9FF"/>
</linearGradient>
<linearGradient id="paint13_linear_62_98" x1="901" y1="158.5" x2="1035" y2="158.5" gradientUnits="userSpaceOnUse">
<stop stop-color="#CFB573"/>
<stop offset="1" stop-color="#96C9FF"/>
</linearGradient>
<linearGradient id="paint14_linear_62_98" x1="1155" y1="156.5" x2="1283" y2="156.5" gradientUnits="userSpaceOnUse">
<stop stop-color="#CFB573"/>
<stop offset="1" stop-color="#96C9FF"/>
</linearGradient>
<clipPath id="clip0_62_98">
<rect width="1420" height="260" fill="white"/>
</clipPath>
</defs>
</svg>
