<svg width="690" height="63" viewBox="0 0 690 63" fill="none" xmlns="http://www.w3.org/2000/svg">
<path d="M13.032 46.336V48H0.872V46.336L4.328 45.952C4.79733 45.9093 5.13867 45.8453 5.352 45.76C5.56533 45.632 5.75733 45.376 5.928 44.992C6.14133 44.5653 6.39733 43.84 6.696 42.816L19.048 4.48H23.08L35.56 42.816C35.8587 43.84 36.0933 44.5653 36.264 44.992C36.4773 45.376 36.6907 45.632 36.904 45.76C37.1173 45.8453 37.4373 45.9093 37.864 45.952L41.384 46.336V48H25.832V46.336L29.352 45.952C30.0347 45.8667 30.3973 45.696 30.44 45.44C30.5253 45.1413 30.3333 44.2667 29.864 42.816L27.24 34.624H11.624L9 42.816C8.53067 44.2667 8.31733 45.1413 8.36 45.44C8.44533 45.696 8.82933 45.8667 9.512 45.952L13.032 46.336ZM12.264 32.576H26.6L19.432 10.304L12.264 32.576ZM77.2925 46.336V48H67.4365V42.88C65.9432 44.8853 64.2365 46.3573 62.3165 47.296C60.4392 48.192 58.5618 48.64 56.6845 48.64C53.6552 48.64 51.2872 47.68 49.5805 45.76C47.9165 43.7973 47.0845 41.0453 47.0845 37.504V21.504C47.0845 20.0107 47.0205 19.136 46.8925 18.88C46.7645 18.624 46.3592 18.4533 45.6765 18.368L42.1565 18.048V16.32H52.3325V37.44C52.3325 40.5973 52.8018 42.8373 53.7405 44.16C54.7218 45.44 56.1298 46.08 57.9645 46.08C59.3298 46.08 60.8232 45.6533 62.4445 44.8C64.1085 43.9467 65.6658 42.304 67.1165 39.872V21.504C67.1165 20.0107 67.0525 19.136 66.9245 18.88C66.7965 18.5813 66.3912 18.4107 65.7085 18.368L60.9085 18.048V16.32H72.3645V42.816C72.3645 44.3093 72.4285 45.184 72.5565 45.44C72.6845 45.696 73.0898 45.8667 73.7725 45.952L77.2925 46.336ZM102.485 41.472C101.845 43.9467 100.842 45.76 99.477 46.912C98.1117 48.064 96.3623 48.64 94.229 48.64C92.181 48.64 90.517 48.192 89.237 47.296C87.957 46.3573 87.0183 45.1413 86.421 43.648C85.8237 42.1547 85.525 40.5973 85.525 38.976V21.504C85.525 20.0107 85.461 19.136 85.333 18.88C85.2477 18.624 84.8423 18.4533 84.117 18.368L80.597 18.048V16.32H85.525V7.936L90.773 6.848V16.32H101.205V18.368H90.773V39.488C90.773 42.176 91.1357 44.032 91.861 45.056C92.629 46.08 93.6317 46.592 94.869 46.592C96.1063 46.592 97.045 46.1227 97.685 45.184C98.3677 44.2453 98.8583 42.7093 99.157 40.576L102.485 41.472ZM141.443 46.336V48H126.339V46.336L129.859 45.952C130.542 45.8667 130.947 45.696 131.075 45.44C131.203 45.184 131.267 44.3093 131.267 42.816V26.88C131.267 23.7227 130.755 21.504 129.731 20.224C128.707 18.9013 127.256 18.24 125.379 18.24C123.928 18.24 122.35 18.6667 120.643 19.52C118.936 20.3733 117.336 22.0587 115.843 24.576V42.816C115.843 44.3093 115.907 45.184 116.035 45.44C116.163 45.696 116.568 45.8667 117.251 45.952L120.771 46.336V48H105.667V46.336L109.187 45.952C109.87 45.8667 110.275 45.696 110.403 45.44C110.531 45.184 110.595 44.3093 110.595 42.816V5.824C110.595 4.33067 110.531 3.456 110.403 3.2C110.275 2.944 109.87 2.77333 109.187 2.688L105.667 2.368V0.639999H115.843V21.184C117.336 19.264 119.043 17.8773 120.963 17.024C122.883 16.128 124.782 15.68 126.659 15.68C129.816 15.68 132.248 16.6613 133.955 18.624C135.662 20.544 136.515 23.2747 136.515 26.816V42.816C136.515 44.3093 136.579 45.184 136.707 45.44C136.835 45.696 137.24 45.8667 137.923 45.952L141.443 46.336ZM174.618 31.488V32.768C174.618 37.5893 173.402 41.4507 170.97 44.352C168.58 47.2107 165.167 48.64 160.73 48.64C156.335 48.64 152.922 47.2107 150.49 44.352C148.1 41.4507 146.906 37.5893 146.906 32.768V31.488C146.906 26.7093 148.1 22.8907 150.49 20.032C152.879 17.1307 156.292 15.68 160.73 15.68C165.167 15.68 168.58 17.1307 170.97 20.032C173.402 22.8907 174.618 26.7093 174.618 31.488ZM168.858 30.208C168.858 25.7707 168.154 22.592 166.746 20.672C165.38 18.7093 163.375 17.728 160.73 17.728C158.127 17.728 156.122 18.7093 154.714 20.672C153.348 22.592 152.666 25.7707 152.666 30.208V34.048C152.666 38.528 153.348 41.7493 154.714 43.712C156.122 45.632 158.127 46.592 160.73 46.592C163.375 46.592 165.38 45.632 166.746 43.712C168.154 41.7493 168.858 38.528 168.858 34.048V30.208ZM180.803 18.048V16.32H190.659V21.44C192.152 19.4347 193.645 17.984 195.139 17.088C196.675 16.1493 198.232 15.68 199.811 15.68C201.176 15.68 202.456 16.0853 203.651 16.896C204.845 17.7067 205.848 19.008 206.659 20.8L202.499 23.296C201.859 21.76 201.133 20.6933 200.323 20.096C199.512 19.4987 198.616 19.2 197.635 19.2C196.568 19.2 195.501 19.5413 194.435 20.224C193.411 20.9067 192.259 22.1867 190.979 24.064V42.816C190.979 44.3093 191.043 45.2053 191.171 45.504C191.299 45.76 191.704 45.9093 192.387 45.952L197.187 46.336V48H180.803V46.336L184.323 45.952C185.005 45.8667 185.411 45.696 185.539 45.44C185.667 45.184 185.731 44.3093 185.731 42.816V21.504C185.731 20.0107 185.667 19.136 185.539 18.88C185.411 18.624 185.005 18.4533 184.323 18.368L180.803 18.048ZM216.416 9.152C215.392 9.152 214.538 8.832 213.856 8.192C213.216 7.50933 212.896 6.63467 212.896 5.568C212.896 4.544 213.216 3.712 213.856 3.072C214.538 2.432 215.392 2.112 216.416 2.112C217.44 2.112 218.272 2.432 218.912 3.072C219.594 3.712 219.936 4.544 219.936 5.568C219.936 6.63467 219.594 7.50933 218.912 8.192C218.272 8.832 217.44 9.152 216.416 9.152ZM208.928 18.048V16.32H219.104V42.816C219.104 44.3093 219.168 45.184 219.296 45.44C219.424 45.696 219.829 45.8667 220.512 45.952L224.032 46.336V48H208.928V46.336L212.448 45.952C213.13 45.8667 213.536 45.696 213.664 45.44C213.792 45.184 213.856 44.3093 213.856 42.816V21.504C213.856 20.0107 213.792 19.136 213.664 18.88C213.536 18.624 213.13 18.4533 212.448 18.368L208.928 18.048ZM249.173 41.472C248.533 43.9467 247.53 45.76 246.165 46.912C244.799 48.064 243.05 48.64 240.917 48.64C238.869 48.64 237.205 48.192 235.925 47.296C234.645 46.3573 233.706 45.1413 233.109 43.648C232.511 42.1547 232.213 40.5973 232.213 38.976V21.504C232.213 20.0107 232.149 19.136 232.021 18.88C231.935 18.624 231.53 18.4533 230.805 18.368L227.285 18.048V16.32H232.213V7.936L237.461 6.848V16.32H247.893V18.368H237.461V39.488C237.461 42.176 237.823 44.032 238.549 45.056C239.317 46.08 240.319 46.592 241.557 46.592C242.794 46.592 243.733 46.1227 244.373 45.184C245.055 44.2453 245.546 42.7093 245.845 40.576L249.173 41.472ZM268.483 51.2C267.544 53.8027 266.52 55.9147 265.411 57.536C264.301 59.2 262.979 60.3947 261.443 61.12C259.907 61.888 257.987 62.272 255.683 62.272V57.152C258.755 57.152 261.08 56.6613 262.659 55.68C264.237 54.7413 265.496 52.9707 266.435 50.368L267.267 48H265.411L256.003 21.12C255.576 19.8827 255.256 19.1573 255.043 18.944C254.829 18.688 254.381 18.5173 253.699 18.432L250.434 18.048V16.32H265.027V18.048L261.763 18.432C261.165 18.4747 260.824 18.624 260.739 18.88C260.653 19.136 260.824 19.8827 261.251 21.12L268.931 43.264L276.675 21.056C277.059 19.8187 277.208 19.0933 277.123 18.88C277.08 18.6667 276.739 18.5173 276.099 18.432L272.771 18.048V16.32H284.483V18.048L281.219 18.432C280.579 18.5173 280.152 18.6667 279.939 18.88C279.725 19.0933 279.405 19.8187 278.979 21.056L268.483 51.2ZM336.251 46.336V48H321.147V46.336L324.667 45.952C325.35 45.8667 325.755 45.696 325.883 45.44C326.011 45.184 326.075 44.3093 326.075 42.816V26.88C326.075 23.7227 325.584 21.504 324.603 20.224C323.664 18.9013 322.278 18.24 320.443 18.24C319.12 18.24 317.627 18.6667 315.963 19.52C314.342 20.3733 312.784 22.016 311.291 24.448V42.816C311.291 44.3093 311.355 45.184 311.483 45.44C311.611 45.696 312.016 45.8667 312.699 45.952L316.219 46.336V48H301.115V46.336L304.635 45.952C305.318 45.8667 305.723 45.696 305.851 45.44C305.979 45.184 306.043 44.3093 306.043 42.816V21.504C306.043 20.0107 305.979 19.136 305.851 18.88C305.723 18.624 305.318 18.4533 304.635 18.368L301.115 18.048V16.32H310.971V21.504C312.464 19.4987 314.15 18.0267 316.027 17.088C317.947 16.1493 319.846 15.68 321.723 15.68C326.331 15.68 329.296 17.792 330.619 22.016C332.198 19.7973 333.947 18.1973 335.867 17.216C337.83 16.192 339.792 15.68 341.755 15.68C344.784 15.68 347.131 16.6613 348.795 18.624C350.502 20.544 351.355 23.2747 351.355 26.816V42.816C351.355 44.3093 351.419 45.184 351.547 45.44C351.675 45.696 352.08 45.8667 352.763 45.952L356.283 46.336V48H341.179V46.336L344.699 45.952C345.382 45.8667 345.787 45.696 345.915 45.44C346.043 45.184 346.107 44.3093 346.107 42.816V26.88C346.107 23.7227 345.616 21.504 344.635 20.224C343.696 18.9013 342.31 18.24 340.475 18.24C339.152 18.24 337.638 18.688 335.931 19.584C334.267 20.4373 332.688 22.1227 331.195 24.64C331.238 24.9813 331.259 25.344 331.259 25.728C331.302 26.0693 331.323 26.432 331.323 26.816V42.816C331.323 44.3093 331.387 45.184 331.515 45.44C331.643 45.696 332.048 45.8667 332.731 45.952L336.251 46.336ZM386.358 48.448C383.03 48.448 381.067 46.912 380.47 43.84C378.977 45.5467 377.334 46.784 375.542 47.552C373.75 48.2773 371.979 48.64 370.23 48.64C367.243 48.64 365.046 47.808 363.638 46.144C362.23 44.48 361.526 42.4747 361.526 40.128C361.526 37.6107 362.379 35.6267 364.086 34.176C365.835 32.6827 368.843 31.936 373.11 31.936H380.342V26.752C380.342 23.3387 379.745 20.992 378.55 19.712C377.398 18.3893 375.819 17.728 373.814 17.728C372.534 17.728 371.382 17.984 370.358 18.496C369.334 19.008 368.587 19.9467 368.118 21.312C367.691 22.6347 367.649 24.576 367.99 27.136L362.934 26.368C362.721 24.3627 362.977 22.5707 363.702 20.992C364.47 19.3707 365.707 18.0907 367.414 17.152C369.163 16.1707 371.339 15.68 373.942 15.68C377.057 15.68 379.446 16.2133 381.11 17.28C382.774 18.304 383.926 19.648 384.566 21.312C385.249 22.976 385.59 24.7893 385.59 26.752V41.152C385.59 43.328 385.825 44.6933 386.294 45.248C386.806 45.8027 387.361 46.08 387.958 46.08C388.342 46.08 388.747 45.9947 389.174 45.824C389.601 45.6107 390.07 45.2907 390.582 44.864L391.734 46.464C391.094 47.0187 390.326 47.488 389.43 47.872C388.577 48.256 387.553 48.448 386.358 48.448ZM372.022 45.952C373.217 45.952 374.497 45.632 375.862 44.992C377.27 44.3093 378.763 42.9653 380.342 40.96V33.984H373.814C371.425 33.984 369.675 34.4747 368.566 35.456C367.499 36.3947 366.966 37.8667 366.966 39.872C366.966 41.792 367.371 43.2853 368.182 44.352C369.035 45.4187 370.315 45.952 372.022 45.952ZM430.329 46.336V48H415.225V46.336L418.745 45.952C419.427 45.8667 419.833 45.696 419.961 45.44C420.089 45.184 420.153 44.3093 420.153 42.816V26.88C420.153 23.7227 419.641 21.504 418.617 20.224C417.593 18.9013 416.121 18.24 414.201 18.24C412.793 18.24 411.235 18.6667 409.529 19.52C407.822 20.3733 406.222 22.0373 404.729 24.512V42.816C404.729 44.3093 404.793 45.184 404.921 45.44C405.049 45.696 405.454 45.8667 406.137 45.952L409.657 46.336V48H394.553V46.336L398.073 45.952C398.755 45.8667 399.161 45.696 399.289 45.44C399.417 45.184 399.481 44.3093 399.481 42.816V21.504C399.481 20.0107 399.417 19.136 399.289 18.88C399.161 18.624 398.755 18.4533 398.073 18.368L394.553 18.048V16.32H404.409V21.504C405.945 19.456 407.673 17.984 409.593 17.088C411.555 16.1493 413.518 15.68 415.481 15.68C418.638 15.68 421.07 16.6613 422.777 18.624C424.526 20.544 425.401 23.2747 425.401 26.816V42.816C425.401 44.3093 425.465 45.184 425.593 45.44C425.721 45.696 426.126 45.8667 426.809 45.952L430.329 46.336ZM460.421 48.448C457.093 48.448 455.13 46.912 454.533 43.84C453.039 45.5467 451.397 46.784 449.605 47.552C447.813 48.2773 446.042 48.64 444.293 48.64C441.306 48.64 439.109 47.808 437.701 46.144C436.293 44.48 435.589 42.4747 435.589 40.128C435.589 37.6107 436.442 35.6267 438.149 34.176C439.898 32.6827 442.906 31.936 447.173 31.936H454.405V26.752C454.405 23.3387 453.807 20.992 452.613 19.712C451.461 18.3893 449.882 17.728 447.877 17.728C446.597 17.728 445.445 17.984 444.421 18.496C443.397 19.008 442.65 19.9467 442.181 21.312C441.754 22.6347 441.711 24.576 442.053 27.136L436.997 26.368C436.783 24.3627 437.039 22.5707 437.765 20.992C438.533 19.3707 439.77 18.0907 441.477 17.152C443.226 16.1707 445.402 15.68 448.005 15.68C451.119 15.68 453.509 16.2133 455.173 17.28C456.837 18.304 457.989 19.648 458.629 21.312C459.311 22.976 459.653 24.7893 459.653 26.752V41.152C459.653 43.328 459.887 44.6933 460.357 45.248C460.869 45.8027 461.423 46.08 462.021 46.08C462.405 46.08 462.81 45.9947 463.237 45.824C463.663 45.6107 464.133 45.2907 464.645 44.864L465.797 46.464C465.157 47.0187 464.389 47.488 463.493 47.872C462.639 48.256 461.615 48.448 460.421 48.448ZM446.085 45.952C447.279 45.952 448.559 45.632 449.925 44.992C451.333 44.3093 452.826 42.9653 454.405 40.96V33.984H447.877C445.487 33.984 443.738 34.4747 442.629 35.456C441.562 36.3947 441.029 37.8667 441.029 39.872C441.029 41.792 441.434 43.2853 442.245 44.352C443.098 45.4187 444.378 45.952 446.085 45.952ZM498.439 51.712C498.439 55.1253 497.18 57.728 494.663 59.52C492.188 61.3547 488.732 62.272 484.295 62.272C479.431 62.272 475.868 61.4187 473.607 59.712C471.346 58.048 470.172 55.936 470.087 53.376L474.823 52.416C474.652 54.7627 475.271 56.64 476.679 58.048C478.13 59.4987 480.668 60.224 484.295 60.224C487.538 60.224 490.14 59.6267 492.103 58.432C494.108 57.2373 495.111 55.488 495.111 53.184C495.111 51.4773 494.535 50.1973 493.383 49.344C492.231 48.4907 490.332 48.064 487.687 48.064H480.071C477.212 48.064 475.207 47.4667 474.055 46.272C472.903 45.0347 472.327 43.6693 472.327 42.176C472.327 40.9387 472.626 39.7867 473.223 38.72C473.863 37.6107 474.866 36.5227 476.231 35.456C474.524 34.6453 473.138 33.472 472.071 31.936C471.004 30.3573 470.471 28.4587 470.471 26.24C470.471 23.8933 471.004 21.952 472.071 20.416C473.18 18.8373 474.631 17.664 476.423 16.896C478.258 16.0853 480.284 15.68 482.503 15.68H483.591C485.938 15.68 488.028 16.1067 489.863 16.96L499.143 13.76L499.847 18.56H492.359C493.34 19.4133 494.108 20.48 494.663 21.76C495.26 23.04 495.559 24.5333 495.559 26.24C495.559 28.5013 495.004 30.4213 493.895 32C492.828 33.5787 491.399 34.7733 489.607 35.584C487.815 36.352 485.81 36.736 483.591 36.736H482.503C481.778 36.736 481.074 36.6933 480.391 36.608C479.708 36.5227 479.047 36.3947 478.407 36.224C477.468 36.864 476.786 37.5253 476.359 38.208C475.975 38.8907 475.783 39.5947 475.783 40.32C475.783 41.1733 476.082 41.856 476.679 42.368C477.319 42.88 478.322 43.136 479.687 43.136H488.007C491.378 43.136 493.959 43.8613 495.751 45.312C497.543 46.7627 498.439 48.896 498.439 51.712ZM483.591 34.688C484.743 34.688 485.788 34.432 486.727 33.92C487.708 33.408 488.498 32.5547 489.095 31.36C489.692 30.1227 489.991 28.416 489.991 26.24C489.991 24.0213 489.692 22.3147 489.095 21.12C488.498 19.8827 487.708 19.008 486.727 18.496C485.788 17.984 484.743 17.728 483.591 17.728H482.503C481.351 17.728 480.284 17.984 479.303 18.496C478.322 19.008 477.532 19.8827 476.935 21.12C476.338 22.3147 476.039 24.0213 476.039 26.24C476.039 28.416 476.338 30.1227 476.935 31.36C477.532 32.5547 478.322 33.408 479.303 33.92C480.284 34.432 481.351 34.688 482.503 34.688H483.591ZM530.442 40.704C529.674 43.6053 528.223 45.6533 526.09 46.848C523.999 48.0427 521.674 48.64 519.114 48.64C514.378 48.64 510.836 47.2107 508.49 44.352C506.143 41.4507 504.97 37.5893 504.97 32.768V31.488C504.97 26.7093 506.1 22.8907 508.362 20.032C510.623 17.1307 513.908 15.68 518.218 15.68C520.522 15.68 522.612 16.1493 524.49 17.088C526.41 18.0267 527.924 19.4133 529.034 21.248C530.186 23.0827 530.762 25.3653 530.762 28.096C530.762 29.376 530.634 30.72 530.378 32.128H510.73V34.048C510.73 38.528 511.412 41.7493 512.778 43.712C514.186 45.632 516.447 46.592 519.562 46.592C521.524 46.592 523.146 46.08 524.426 45.056C525.748 44.032 526.623 42.2613 527.05 39.744L530.442 40.704ZM518.218 17.728C515.7 17.728 513.823 18.688 512.586 20.608C511.348 22.528 510.73 25.6853 510.73 30.08H525.13V29.888C525.215 29.3333 525.279 28.8 525.322 28.288C525.364 27.7333 525.386 27.2427 525.386 26.816C525.386 23.616 524.724 21.312 523.402 19.904C522.079 18.4533 520.351 17.728 518.218 17.728ZM571.939 46.336V48H556.835V46.336L560.355 45.952C561.037 45.8667 561.443 45.696 561.571 45.44C561.699 45.184 561.763 44.3093 561.763 42.816V26.88C561.763 23.7227 561.272 21.504 560.291 20.224C559.352 18.9013 557.965 18.24 556.131 18.24C554.808 18.24 553.315 18.6667 551.651 19.52C550.029 20.3733 548.472 22.016 546.979 24.448V42.816C546.979 44.3093 547.043 45.184 547.171 45.44C547.299 45.696 547.704 45.8667 548.387 45.952L551.907 46.336V48H536.803V46.336L540.323 45.952C541.005 45.8667 541.411 45.696 541.539 45.44C541.667 45.184 541.731 44.3093 541.731 42.816V21.504C541.731 20.0107 541.667 19.136 541.539 18.88C541.411 18.624 541.005 18.4533 540.323 18.368L536.803 18.048V16.32H546.659V21.504C548.152 19.4987 549.837 18.0267 551.715 17.088C553.635 16.1493 555.533 15.68 557.411 15.68C562.019 15.68 564.984 17.792 566.307 22.016C567.885 19.7973 569.635 18.1973 571.555 17.216C573.517 16.192 575.48 15.68 577.443 15.68C580.472 15.68 582.819 16.6613 584.483 18.624C586.189 20.544 587.043 23.2747 587.043 26.816V42.816C587.043 44.3093 587.107 45.184 587.235 45.44C587.363 45.696 587.768 45.8667 588.451 45.952L591.971 46.336V48H576.867V46.336L580.387 45.952C581.069 45.8667 581.475 45.696 581.603 45.44C581.731 45.184 581.795 44.3093 581.795 42.816V26.88C581.795 23.7227 581.304 21.504 580.323 20.224C579.384 18.9013 577.997 18.24 576.163 18.24C574.84 18.24 573.325 18.688 571.619 19.584C569.955 20.4373 568.376 22.1227 566.882 24.64C566.925 24.9813 566.947 25.344 566.947 25.728C566.989 26.0693 567.011 26.432 567.011 26.816V42.816C567.011 44.3093 567.075 45.184 567.203 45.44C567.331 45.696 567.736 45.8667 568.419 45.952L571.939 46.336ZM622.942 40.704C622.174 43.6053 620.723 45.6533 618.59 46.848C616.499 48.0427 614.174 48.64 611.614 48.64C606.878 48.64 603.336 47.2107 600.99 44.352C598.643 41.4507 597.47 37.5893 597.47 32.768V31.488C597.47 26.7093 598.6 22.8907 600.862 20.032C603.123 17.1307 606.408 15.68 610.718 15.68C613.022 15.68 615.112 16.1493 616.99 17.088C618.91 18.0267 620.424 19.4133 621.534 21.248C622.686 23.0827 623.262 25.3653 623.262 28.096C623.262 29.376 623.134 30.72 622.878 32.128H603.23V34.048C603.23 38.528 603.912 41.7493 605.278 43.712C606.686 45.632 608.947 46.592 612.062 46.592C614.024 46.592 615.646 46.08 616.926 45.056C618.248 44.032 619.123 42.2613 619.55 39.744L622.942 40.704ZM610.718 17.728C608.2 17.728 606.323 18.688 605.086 20.608C603.848 22.528 603.23 25.6853 603.23 30.08H617.63V29.888C617.715 29.3333 617.779 28.8 617.822 28.288C617.864 27.7333 617.886 27.2427 617.886 26.816C617.886 23.616 617.224 21.312 615.902 19.904C614.579 18.4533 612.851 17.728 610.718 17.728ZM665.079 46.336V48H649.975V46.336L653.495 45.952C654.177 45.8667 654.583 45.696 654.711 45.44C654.839 45.184 654.903 44.3093 654.903 42.816V26.88C654.903 23.7227 654.391 21.504 653.367 20.224C652.343 18.9013 650.871 18.24 648.951 18.24C647.543 18.24 645.985 18.6667 644.279 19.52C642.572 20.3733 640.972 22.0373 639.479 24.512V42.816C639.479 44.3093 639.543 45.184 639.671 45.44C639.799 45.696 640.204 45.8667 640.887 45.952L644.407 46.336V48H629.303V46.336L632.823 45.952C633.505 45.8667 633.911 45.696 634.039 45.44C634.167 45.184 634.231 44.3093 634.231 42.816V21.504C634.231 20.0107 634.167 19.136 634.039 18.88C633.911 18.624 633.505 18.4533 632.823 18.368L629.303 18.048V16.32H639.159V21.504C640.695 19.456 642.423 17.984 644.343 17.088C646.305 16.1493 648.268 15.68 650.231 15.68C653.388 15.68 655.82 16.6613 657.527 18.624C659.276 20.544 660.151 23.2747 660.151 26.816V42.816C660.151 44.3093 660.215 45.184 660.343 45.44C660.471 45.696 660.876 45.8667 661.559 45.952L665.079 46.336ZM689.923 41.472C689.283 43.9467 688.28 45.76 686.915 46.912C685.549 48.064 683.8 48.64 681.667 48.64C679.619 48.64 677.955 48.192 676.675 47.296C675.395 46.3573 674.456 45.1413 673.859 43.648C673.261 42.1547 672.963 40.5973 672.963 38.976V21.504C672.963 20.0107 672.899 19.136 672.771 18.88C672.685 18.624 672.28 18.4533 671.555 18.368L668.035 18.048V16.32H672.963V7.936L678.211 6.848V16.32H688.643V18.368H678.211V39.488C678.211 42.176 678.573 44.032 679.299 45.056C680.067 46.08 681.069 46.592 682.307 46.592C683.544 46.592 684.483 46.1227 685.123 45.184C685.805 44.2453 686.296 42.7093 686.595 40.576L689.923 41.472Z" fill="url(#paint0_linear_50_2)"/>
<defs>
<linearGradient id="paint0_linear_50_2" x1="7" y1="-2" x2="678" y2="42" gradientUnits="userSpaceOnUse">
<stop stop-color="#E465BF"/>
<stop offset="0.55" stop-color="#8CB864"/>
<stop offset="1" stop-color="#40A0F3"/>
</linearGradient>
</defs>
</svg>
